<?xml version="1.0" encoding="UTF-8"?>
<svg width="13px" height="16px" viewBox="0 0 13 16" version="1.1" xmlns="http://www.w3.org/2000/svg" xmlns:xlink="http://www.w3.org/1999/xlink">
    <!-- Generator: Sketch 47.1 (45422) - http://www.bohemiancoding.com/sketch -->
    <title>Elements/Quotes/apple</title>
    <desc>Created with Sketch.</desc>
    <defs></defs>
    <g id="Page-1" stroke="none" stroke-width="1" fill="none" fill-rule="evenodd">
        <g id="Desktop" transform="translate(-821.000000, -858.000000)" fill="#FFFFFF">
            <g id="Activ" transform="translate(816.000000, 854.000000)">
                <g id="Group-2">
                    <g id="Quotes-list" transform="translate(0.000000, 3.000000)">
                        <g transform="translate(0.000000, 1.000000)" id="Elements/Quotes/apple">
                            <g transform="translate(5.000000, 0.000000)">
                                <path d="M10.8579787,8.50876862 C10.8786473,10.931513 12.9743208,11.7324047 13,11.741185 C12.9874736,11.79763 12.6718073,12.897053 11.8857731,14.0134095 C11.2293876,14.9961794 10.541686,15.9569986 9.4493804,15.9745593 C8.38839088,15.9990188 8.03138732,15.3492742 6.81444361,15.3492742 C5.58622611,15.3492742 5.20604863,15.9569986 4.18827533,15.9990188 C3.14795444,16.0372759 2.35315178,14.9497691 1.67296605,13.9757795 C0.313220921,11.9870343 -0.745263313,8.37141914 0.673982411,5.91104476 C1.361684,4.70437631 2.61558071,3.92731695 3.95590986,3.90662046 C4.9974834,3.88529679 5.96389829,4.61092849 6.60399941,4.61092849 C7.23157409,4.61092849 8.42659652,3.74292999 9.65857196,3.87275346 C10.174035,3.88780546 11.6408812,4.07658259 12.5872538,5.45823051 C12.5108425,5.50401367 10.8398153,6.48741082 10.8579787,8.50876862 Z M8.85374815,2.56448403 C8.28254246,3.23931524 7.36873861,3.75547332 6.478735,3.68899366 C6.36223911,2.77834783 6.81319097,1.81000267 7.31800653,1.21921178 C7.8885859,0.548770733 8.87942735,0.0351213269 9.67172472,0 C9.77569418,0.946394328 9.4011536,1.87899099 8.85374815,2.56448403 Z"></path>
                            </g>
                        </g>
                    </g>
                </g>
            </g>
        </g>
    </g>
</svg>