<?xml version="1.0" encoding="UTF-8"?>
<svg width="16px" height="16px" viewBox="0 0 16 16" version="1.1" xmlns="http://www.w3.org/2000/svg" xmlns:xlink="http://www.w3.org/1999/xlink">
    <!-- Generator: Sketch 47.1 (45422) - http://www.bohemiancoding.com/sketch -->
    <title>bitcoin</title>
    <desc>Created with Sketch.</desc>
    <defs></defs>
    <g id="Page-1" stroke="none" stroke-width="1" fill="none" fill-rule="evenodd">
        <g id="Desktop" transform="translate(-1248.000000, -858.000000)">
            <g id="Activ" transform="translate(816.000000, 854.000000)">
                <g id="Group-2">
                    <g id="Quotes-list-Copy-5" transform="translate(428.000000, 3.000000)">
                        <g id="Quotes-list" transform="translate(0.000000, 1.000000)">
                            <g id="Elements/Quotes/apple" transform="translate(4.000000, 0.000000)">
                                <g id="bitcoin">
                                    <path d="M15.9156979,7.9578006 C15.9156979,12.3528218 12.3528701,15.9156495 7.95784894,15.9156495 C3.56287613,15.9156495 0,12.3528218 0,7.9578006 C0,3.56282779 3.56287613,0 7.95784894,0 C12.3528701,0 15.9156979,3.56282779 15.9156979,7.9578006" id="Fill-1" fill="#F8921A"></path>
                                    <path d="M10.7030332,8.53251964 C11.2917946,8.40949849 11.7414864,8.03381269 11.8754804,7.2406284 C12.0603263,6.15731722 11.2438912,5.55555287 10.1192991,5.14187311 L10.5165921,3.67755891 L9.62436254,3.43538369 L9.23717221,4.86126888 C9.00244109,4.79755891 8.76171601,4.73713595 8.52210272,4.67729305 L8.9113716,3.24198187 L8.01967372,3 L7.62209063,4.46378248 C7.42781873,4.41534743 7.23702719,4.36783082 7.05164955,4.31751057 L7.05290634,4.31296677 L5.82216314,3.97846526 L5.56393958,4.93053776 C5.56393958,4.93053776 6.22617523,5.09687009 6.21210876,5.10600604 C6.5734864,5.20442296 6.63463444,5.44606647 6.6192145,5.63598792 L6.16676737,7.30467674 C6.19161329,7.31139577 6.22375831,7.32106344 6.25957704,7.33629003 C6.22946224,7.32812085 6.19765559,7.31946828 6.16512387,7.31062236 L5.53073112,9.64802417 C5.48427795,9.7574139 5.36783082,9.92065257 5.11506949,9.85235045 C5.12386707,9.86545015 4.46598187,9.67620544 4.46598187,9.67620544 L4,10.6925196 L5.16108761,11.0076375 C5.37745015,11.0666586 5.58917221,11.1278066 5.79693051,11.185861 L5.39572205,12.6674804 L6.28722659,12.9096073 L6.68476133,11.4437462 C6.92848338,11.515577 7.16480967,11.581994 7.39596375,11.6444471 L6.99987915,13.1032024 L7.89201208,13.345136 L8.29370393,11.8667553 C9.81747432,12.1879154 10.969861,12.0952024 11.4826828,10.7232145 C11.8957341,9.61844109 11.4994079,8.96785498 10.7030332,8.53251964 L10.7030332,8.53251964 Z M8.25870695,5.73087613 C8.76244109,5.86757704 10.3887372,6.13696677 10.1037341,7.18745619 C9.83023565,8.19453776 8.27973414,7.64729909 7.77566163,7.51050151 L8.25870695,5.73087613 L8.25870695,5.73087613 Z M6.99881571,10.3714562 L7.53174622,8.40911178 C8.13679758,8.57331722 10.0804834,8.91424773 9.76725076,10.0689547 C9.46702115,11.176145 7.60430211,10.5351782 6.99881571,10.3714562 L6.99881571,10.3714562 Z" id="Fill-3" fill="#FFFFFF"></path>
                                </g>
                            </g>
                        </g>
                    </g>
                </g>
            </g>
        </g>
    </g>
</svg>