<?xml version="1.0" encoding="UTF-8"?>
<svg width="30px" height="30px" viewBox="0 0 30 30" version="1.1" xmlns="http://www.w3.org/2000/svg" xmlns:xlink="http://www.w3.org/1999/xlink">
    <!-- Generator: Sketch 47.1 (45422) - http://www.bohemiancoding.com/sketch -->
    <title>eu</title>
    <desc>Created with Sketch.</desc>
    <defs></defs>
    <g id="Page-1" stroke="none" stroke-width="1" fill="none" fill-rule="evenodd">
        <g id="Desktop" transform="translate(-469.000000, -860.000000)" fill="#6B6E87">
            <g id="Footer" transform="translate(178.000000, 854.000000)">
                <g id="Group-3" transform="translate(56.000000, 0.000000)">
                    <g id="Group-14" transform="translate(20.000000, 6.000000)">
                        <g id="2" transform="translate(215.000000, 0.000000)">
                            <path d="M15.0464396,26.0126582 L15.0464396,26.0126582 L15.0464396,26.2025316 L15.6965944,27.3417722 L17.1826625,27.3417722 L15.7894737,28.5759494 L16.25387,30 L16.1609907,29.9050633 L16.1609907,30 L15.3250774,29.335443 L14.9535604,29.0506329 L14.5820433,29.335443 L13.74613,30 L13.74613,29.9050633 L13.6532508,30 L14.1176471,28.5759494 L12.7244582,27.3417722 L14.2105263,27.3417722 L14.8606811,26.2025316 L14.8606811,26.0126582 L15.0464396,26.0126582 Z M15.0464396,-5.32907052e-15 L15.0464396,-5.32907052e-15 L15.0464396,0.189873418 L15.6965944,1.32911392 L17.1826625,1.32911392 L15.7894737,2.56329114 L16.25387,3.98734177 L16.1609907,3.89240506 L16.1609907,3.98734177 L15.3250774,3.32278481 L14.9535604,3.03797468 L14.5820433,3.32278481 L13.74613,3.98734177 L13.74613,3.89240506 L13.6532508,3.98734177 L14.1176471,2.56329114 L12.7244582,1.32911392 L14.2105263,1.32911392 L14.8606811,0.189873418 L14.8606811,-5.32907052e-15 L15.0464396,-5.32907052e-15 Z M8.54489164,1.70886076 L8.54489164,1.70886076 L8.54489164,1.89873418 L9.19504644,3.03797468 L10.6811146,3.03797468 L9.2879257,4.2721519 L9.75232198,5.69620253 L9.65944272,5.60126582 L9.65944272,5.69620253 L8.82352941,5.03164557 L8.45201238,4.74683544 L8.08049536,5.03164557 L7.24458204,5.69620253 L7.24458204,5.60126582 L7.15170279,5.69620253 L7.61609907,4.2721519 L6.22291022,3.03797468 L7.70897833,3.03797468 L8.35913313,1.89873418 L8.35913313,1.70886076 L8.54489164,1.70886076 Z M21.5479876,1.70886076 L21.5479876,1.70886076 L21.5479876,1.89873418 L22.1981424,3.03797468 L23.6842105,3.03797468 L22.2910217,4.2721519 L22.755418,5.69620253 L22.6625387,5.60126582 L22.6625387,5.69620253 L21.8266254,5.03164557 L21.4551084,4.74683544 L21.0835913,5.03164557 L20.247678,5.69620253 L20.247678,5.60126582 L20.1547988,5.69620253 L20.619195,4.2721519 L19.2260062,3.03797468 L20.7120743,3.03797468 L21.3622291,1.89873418 L21.3622291,1.70886076 L21.5479876,1.70886076 Z M26.1919505,6.26582278 L26.1919505,6.26582278 L26.1919505,6.4556962 L26.8421053,7.59493671 L28.3281734,7.59493671 L26.9349845,8.82911392 L27.3993808,10.2531646 L27.3065015,10.1582278 L27.3065015,10.2531646 L26.4705882,9.58860759 L26.0990712,9.30379747 L25.7275542,9.58860759 L24.8916409,10.2531646 L24.8916409,10.1582278 L24.7987616,10.2531646 L25.2631579,8.82911392 L23.869969,7.59493671 L25.3560372,7.59493671 L26.006192,6.4556962 L26.006192,6.26582278 L26.1919505,6.26582278 Z M4.08668731,6.26582278 L4.08668731,6.26582278 L4.08668731,6.4556962 L4.73684211,7.59493671 L6.22291022,7.59493671 L4.82972136,8.82911392 L5.29411765,10.2531646 L5.20123839,10.1582278 L5.20123839,10.2531646 L4.36532508,9.58860759 L3.99380805,9.30379747 L3.62229102,9.58860759 L2.78637771,10.2531646 L2.78637771,10.1582278 L2.69349845,10.2531646 L3.15789474,8.82911392 L1.76470588,7.59493671 L3.25077399,7.59493671 L3.90092879,6.4556962 L3.90092879,6.26582278 L4.08668731,6.26582278 Z M27.8637771,13.0063291 L27.8637771,13.0063291 L27.8637771,13.1962025 L28.5139319,14.335443 L30,14.335443 L28.6068111,15.5696203 L29.0712074,16.9936709 L28.9783282,16.8987342 L28.9783282,16.9936709 L28.1424149,16.3291139 L27.7708978,16.0443038 L27.3993808,16.3291139 L26.5634675,16.9936709 L26.5634675,16.8987342 L26.4705882,16.9936709 L26.9349845,15.5696203 L25.5417957,14.335443 L27.0278638,14.335443 L27.6780186,13.1962025 L27.6780186,13.0063291 L27.8637771,13.0063291 Z M2.32198142,13.0063291 L2.32198142,13.0063291 L2.32198142,13.1962025 L2.97213622,14.335443 L4.45820433,14.335443 L3.06501548,15.5696203 L3.52941176,16.9936709 L3.43653251,16.8987342 L3.43653251,16.9936709 L2.6006192,16.3291139 L2.22910217,16.0443038 L1.85758514,16.3291139 L1.02167183,16.9936709 L1.02167183,16.8987342 L0.92879257,16.9936709 L1.39318885,15.5696203 L0,14.335443 L1.48606811,14.335443 L2.13622291,13.1962025 L2.13622291,13.0063291 L2.32198142,13.0063291 Z M26.1919505,19.4620253 L26.1919505,19.4620253 L26.1919505,19.6518987 L26.8421053,20.7911392 L28.3281734,20.7911392 L26.9349845,22.0253165 L27.3993808,23.4493671 L27.3065015,23.3544304 L27.3065015,23.4493671 L26.4705882,22.7848101 L26.0990712,22.5 L25.7275542,22.7848101 L24.8916409,23.4493671 L24.8916409,23.3544304 L24.7987616,23.4493671 L25.2631579,22.0253165 L23.869969,20.7911392 L25.3560372,20.7911392 L26.006192,19.6518987 L26.006192,19.4620253 L26.1919505,19.4620253 Z M4.08668731,19.4620253 L4.08668731,19.4620253 L4.08668731,19.6518987 L4.73684211,20.7911392 L6.22291022,20.7911392 L4.82972136,22.0253165 L5.29411765,23.4493671 L5.20123839,23.3544304 L5.20123839,23.4493671 L4.36532508,22.7848101 L3.99380805,22.5 L3.62229102,22.7848101 L2.78637771,23.4493671 L2.78637771,23.3544304 L2.69349845,23.4493671 L3.15789474,22.0253165 L1.76470588,20.7911392 L3.25077399,20.7911392 L3.90092879,19.6518987 L3.90092879,19.4620253 L4.08668731,19.4620253 Z M8.54489164,24.1139241 L8.54489164,24.1139241 L8.54489164,24.3037975 L9.19504644,25.443038 L10.6811146,25.443038 L9.2879257,26.6772152 L9.75232198,28.1012658 L9.65944272,28.0063291 L9.65944272,28.1012658 L8.82352941,27.4367089 L8.45201238,27.1518987 L8.08049536,27.4367089 L7.24458204,28.1012658 L7.24458204,28.0063291 L7.15170279,28.1012658 L7.61609907,26.6772152 L6.22291022,25.443038 L7.70897833,25.443038 L8.35913313,24.3037975 L8.35913313,24.1139241 L8.54489164,24.1139241 Z M21.5479876,24.1139241 L21.5479876,24.1139241 L21.5479876,24.3037975 L22.1981424,25.443038 L23.6842105,25.443038 L22.2910217,26.6772152 L22.755418,28.1012658 L22.6625387,28.0063291 L22.6625387,28.1012658 L21.8266254,27.4367089 L21.4551084,27.1518987 L21.0835913,27.4367089 L20.247678,28.1012658 L20.247678,28.0063291 L20.1547988,28.1012658 L20.619195,26.6772152 L19.2260062,25.443038 L20.7120743,25.443038 L21.3622291,24.3037975 L21.3622291,24.1139241 L21.5479876,24.1139241 Z" id="eu"></path>
                        </g>
                    </g>
                </g>
            </g>
        </g>
    </g>
</svg>