<?xml version="1.0" encoding="UTF-8"?>
<svg width="23px" height="16px" viewBox="0 0 23 16" version="1.1" xmlns="http://www.w3.org/2000/svg" xmlns:xlink="http://www.w3.org/1999/xlink">
    <!-- Generator: Sketch 47.1 (45422) - http://www.bohemiancoding.com/sketch -->
    <title>Group 2</title>
    <desc>Created with Sketch.</desc>
    <defs></defs>
    <g id="Page-1" stroke="none" stroke-width="1" fill="none" fill-rule="evenodd">
        <g id="Desktop" transform="translate(-1387.000000, -858.000000)">
            <g id="Activ" transform="translate(816.000000, 854.000000)">
                <g id="Group-2">
                    <g id="Quotes-list-Copy-6" transform="translate(571.000000, 3.000000)">
                        <g id="Quotes-list" transform="translate(0.000000, 1.000000)">
                            <g id="Elements/Quotes/apple">
                                <g id="Group-2">
                                    <g id="euro">
                                        <polygon id="bg" fill="#003399" fill-rule="nonzero" points="0 0 14 0 14 11 0 11"></polygon>
                                        <path d="M7,2.29999998 L6.55916106,2.60676275 L6.71468306,2.09270509 L6.28670761,1.76823725 L6.82366443,1.75729492 L7,1.25 L7.17633557,1.75729492 L7.71329239,1.76823725 L7.28531694,2.09270509 L7.44083894,2.60676275 L7,2.29999998 Z M8.78580931,2.77850615 L8.34497037,3.08526891 L8.50049238,2.57121126 L8.07251693,2.24674342 L8.60947375,2.23580108 L8.78580931,1.72850616 L8.96214488,2.23580108 L9.4991017,2.24674342 L9.07112625,2.57121126 L9.22664825,3.08526891 L8.78580931,2.77850615 Z M10.0931125,4.0858093 L9.65227352,4.39257206 L9.80779553,3.87851441 L9.37982008,3.55404657 L9.9167769,3.54310423 L10.0931125,3.03580931 L10.269448,3.54310423 L10.8064049,3.55404657 L10.3784294,3.87851441 L10.5339514,4.39257206 L10.0931125,4.0858093 Z M10.5716186,5.87161861 L10.1307797,6.17838137 L10.2863017,5.66432372 L9.85832624,5.33985588 L10.3952831,5.32891354 L10.5716186,4.82161863 L10.7479542,5.32891354 L11.284911,5.33985588 L10.8569356,5.66432372 L11.0124576,6.17838137 L10.5716186,5.87161861 Z M10.0931125,7.65742792 L9.65227352,7.96419069 L9.80779553,7.45013303 L9.37982008,7.12566519 L9.9167769,7.11472286 L10.0931125,6.60742794 L10.269448,7.11472286 L10.8064049,7.12566519 L10.3784294,7.45013303 L10.5339514,7.96419069 L10.0931125,7.65742792 Z M8.78580931,8.96473107 L8.34497037,9.27149384 L8.50049238,8.75743618 L8.07251693,8.43296835 L8.60947375,8.42202601 L8.78580931,7.91473109 L8.96214488,8.42202601 L9.4991017,8.43296835 L9.07112625,8.75743618 L9.22664825,9.27149384 L8.78580931,8.96473107 Z M7,9.44323724 L6.55916106,9.75 L6.71468306,9.23594235 L6.28670761,8.91147451 L6.82366443,8.90053217 L7,8.39323725 L7.17633557,8.90053217 L7.71329239,8.91147451 L7.28531694,9.23594235 L7.44083894,9.75 L7,9.44323724 Z M5.21419069,8.96473107 L4.77335175,9.27149384 L4.92887375,8.75743618 L4.5008983,8.43296835 L5.03785512,8.42202601 L5.21419069,7.91473109 L5.39052625,8.42202601 L5.92748307,8.43296835 L5.49950762,8.75743618 L5.65502963,9.27149384 L5.21419069,8.96473107 Z M3.90688754,7.65742792 L3.4660486,7.96419069 L3.6215706,7.45013303 L3.19359515,7.12566519 L3.73055197,7.11472286 L3.90688754,6.60742794 L4.0832231,7.11472286 L4.62017992,7.12566519 L4.19220447,7.45013303 L4.34772648,7.96419069 L3.90688754,7.65742792 Z M3.42838137,5.87161861 L2.98754243,6.17838137 L3.14306444,5.66432372 L2.71508899,5.33985588 L3.25204581,5.32891354 L3.42838137,4.82161863 L3.60471694,5.32891354 L4.14167376,5.33985588 L3.71369831,5.66432372 L3.86922031,6.17838137 L3.42838137,5.87161861 Z M3.90688754,4.0858093 L3.4660486,4.39257206 L3.6215706,3.87851441 L3.19359515,3.55404657 L3.73055197,3.54310423 L3.90688754,3.03580931 L4.0832231,3.54310423 L4.62017992,3.55404657 L4.19220447,3.87851441 L4.34772648,4.39257206 L3.90688754,4.0858093 Z M5.21419069,2.77850615 L4.77335175,3.08526891 L4.92887375,2.57121126 L4.5008983,2.24674342 L5.03785512,2.23580108 L5.21419069,1.72850616 L5.39052625,2.23580108 L5.92748307,2.24674342 L5.49950762,2.57121126 L5.65502963,3.08526891 L5.21419069,2.77850615 Z" id="Star-2" fill="#FFCC00" fill-rule="evenodd"></path>
                                    </g>
                                    <g id="usa" transform="translate(9.000000, 5.000000)">
                                        <rect id="Rectangle" fill="#FFFFFF" x="0" y="0" width="14" height="11"></rect>
                                        <rect id="Rectangle-Copy-33" fill="#000098" x="0" y="0" width="9" height="7"></rect>
                                        <path d="M0,0 L1,0 L1,1 L0,1 L0,0 Z M1,1 L2,1 L2,2 L1,2 L1,1 Z M3,1 L4,1 L4,2 L3,2 L3,1 Z M1,3 L2,3 L2,4 L1,4 L1,3 Z M3,3 L4,3 L4,4 L3,4 L3,3 Z M1,5 L2,5 L2,6 L1,6 L1,5 Z M3,5 L4,5 L4,6 L3,6 L3,5 Z M5,1 L6,1 L6,2 L5,2 L5,1 Z M5,3 L6,3 L6,4 L5,4 L5,3 Z M5,5 L6,5 L6,6 L5,6 L5,5 Z M7,1 L8,1 L8,2 L7,2 L7,1 Z M7,3 L8,3 L8,4 L7,4 L7,3 Z M7,5 L8,5 L8,6 L7,6 L7,5 Z M0,2 L1,2 L1,3 L0,3 L0,2 Z M2,0 L3,0 L3,1 L2,1 L2,0 Z M2,2 L3,2 L3,3 L2,3 L2,2 Z M4,0 L5,0 L5,1 L4,1 L4,0 Z M4,2 L5,2 L5,3 L4,3 L4,2 Z M6,0 L7,0 L7,1 L6,1 L6,0 Z M6,2 L7,2 L7,3 L6,3 L6,2 Z M8,0 L9,0 L9,1 L8,1 L8,0 Z M8,2 L9,2 L9,3 L8,3 L8,2 Z M0,4 L1,4 L1,5 L0,5 L0,4 Z M2,4 L3,4 L3,5 L2,5 L2,4 Z M4,4 L5,4 L5,5 L4,5 L4,4 Z M6,4 L7,4 L7,5 L6,5 L6,4 Z M8,4 L9,4 L9,5 L8,5 L8,4 Z M0,6 L1,6 L1,7 L0,7 L0,6 Z M2,6 L3,6 L3,7 L2,7 L2,6 Z M4,6 L5,6 L5,7 L4,7 L4,6 Z M6,6 L7,6 L7,7 L6,7 L6,6 Z M8,6 L9,6 L9,7 L8,7 L8,6 Z" id="Combined-Shape" fill="#ABAADE"></path>
                                        <path d="M9,0 L14,0 L14,1 L9,1 L9,0 Z M9,2 L14,2 L14,3 L9,3 L9,2 Z M9,4 L14,4 L14,5 L9,5 L9,4 Z M9,6 L14,6 L14,7 L9,7 L9,6 Z M0,8 L14,8 L14,9 L0,9 L0,8 Z M0,10 L14,10 L14,11 L0,11 L0,10 Z" id="Combined-Shape" fill="#D10001"></path>
                                    </g>
                                </g>
                            </g>
                        </g>
                    </g>
                </g>
            </g>
        </g>
    </g>
</svg>