<?xml version="1.0" encoding="UTF-8"?>
<svg width="91px" height="39px" viewBox="0 0 91 39" version="1.1" xmlns="http://www.w3.org/2000/svg" xmlns:xlink="http://www.w3.org/1999/xlink">
    <!-- Generator: Sketch 47.1 (45422) - http://www.bohemiancoding.com/sketch -->
    <title>Le Fonti</title>
    <desc>Created with Sketch.</desc>
    <defs></defs>
    <g id="Page-1" stroke="none" stroke-width="1" fill="none" fill-rule="evenodd">
        <g id="Desktop" transform="translate(-1212.000000, -639.000000)" fill="#7D8694">
            <g id="Group-5" transform="translate(159.000000, 172.000000)">
                <g id="LEFA_awards" transform="translate(942.000000, 467.000000)">
                    <g id="Group-44" transform="translate(111.000000, 0.000000)">
                        <path d="M32.7546201,11.020319 C33.5777747,10.9897973 33.7335601,10.9007755 33.7335601,10.5885636 L33.7335601,5.62115054 C33.7335601,5.30957446 33.5777747,5.21991685 32.7546201,5.18939511 L32.7546201,4.8072375 L36.161437,4.8072375 L36.161437,5.18939511 C35.3382825,5.21991685 35.1712752,5.30957446 35.1712752,5.62115054 L35.1712752,10.9700853 L35.8901327,10.9700853 C37.3384094,10.9700853 37.7344741,10.318319 38.1932491,8.94293315 L38.6408023,8.96328098 L38.5787521,11.4120147 L32.7546201,11.4120147 L32.7546201,11.020319 Z M39.2029502,11.020319 C40.0261047,10.9897973 40.1825503,10.9007755 40.1825503,10.5885636 L40.1825503,5.62115054 C40.1825503,5.30957446 40.0261047,5.21991685 39.2029502,5.18939511 L39.2029502,4.8072375 L45.0277423,4.8072375 L45.0904526,6.91578098 L44.652801,6.92595489 C44.267298,5.80110163 43.9755303,5.23009076 42.756311,5.23009076 L41.6209254,5.23009076 L41.6209254,7.81871576 L42.0064284,7.81871576 C42.7252859,7.81871576 42.9853685,7.7385962 43.2975995,6.76507989 L43.6732009,6.76507989 L43.6732009,9.31428098 L43.2975995,9.31428098 C42.9853685,8.34076467 42.7252859,8.2504712 42.0064284,8.2504712 L41.6209254,8.2504712 L41.6209254,10.9700853 L42.7048226,10.9700853 C44.1524392,10.9700853 44.5273805,10.318319 44.9439086,9.09363424 L45.392782,9.10317228 L45.3089483,11.4120147 L39.2029502,11.4120147 L39.2029502,11.020319 Z M48.0912371,11.020319 C48.9137315,10.9897973 49.069517,10.9007755 49.069517,10.5885636 L49.069517,5.62115054 C49.069517,5.30957446 48.9137315,5.21991685 48.0912371,5.18939511 L48.0912371,4.8072375 L53.9048074,4.8072375 L53.9463942,6.93549293 L53.4981809,6.95584076 C53.1027763,5.78138967 52.6968099,5.23009076 51.4769305,5.23009076 L50.507232,5.23009076 L50.507232,7.8994712 L50.9455436,7.8994712 C51.6650613,7.8994712 51.8624335,7.80854185 52.1753247,6.89606902 L52.5496058,6.89606902 L52.5496058,9.39440054 L52.1753247,9.39440054 C51.8624335,8.42088424 51.6650613,8.33122663 50.9455436,8.33122663 L50.507232,8.33122663 L50.507232,10.5885636 C50.507232,10.9204875 50.6227509,11.0006071 51.5495424,11.0304929 L51.5495424,11.4120147 L48.0912371,11.4120147 L48.0912371,11.020319 Z M54.5604925,8.13022826 C54.5604925,6.01214674 55.9784043,4.64757065 57.9468461,4.64757065 C59.9687566,4.64757065 61.3437613,5.97272283 61.3437613,8.09016848 C61.3437613,10.2171522 59.9166081,11.5721902 57.9468461,11.5721902 C55.9255957,11.5721902 54.5604925,10.2578478 54.5604925,8.13022826 Z M59.7707242,8.10988043 C59.7707242,5.96254891 59.0934535,5.07869022 57.9052593,5.07869022 C56.7282869,5.07869022 56.1335297,5.96254891 56.1335297,8.10988043 C56.1335297,10.2680217 56.8121206,11.1417065 57.9884329,11.1417065 C59.1766271,11.1417065 59.7707242,10.2680217 59.7707242,8.10988043 Z M63.6779029,6.28296359 L63.6363161,6.28296359 L63.6363161,9.63526793 C63.6363161,10.5788984 63.7610765,10.9203603 64.7618001,11.0399038 L64.7618001,11.4118875 L62.0626189,11.4118875 L62.0626189,11.0399038 C62.9900705,10.9101864 63.1253926,10.5884364 63.1253926,9.63526793 L63.1253926,6.01208315 C63.1253926,5.56061576 62.9062368,5.20961576 62.0626189,5.18926793 L62.0626189,4.8077462 L64.2614383,4.8077462 L67.9910479,9.53480054 L68.022073,9.53480054 L68.022073,6.57419185 C68.022073,5.64073533 67.8035773,5.28973533 66.8140755,5.17972989 L66.8140755,4.8077462 L69.53306,4.8077462 L69.53306,5.17972989 C68.6062685,5.30944728 68.5323364,5.64073533 68.5323364,6.57419185 L68.5323364,11.5218929 L67.8035773,11.5218929 L63.6779029,6.28296359 Z M71.2936338,11.020319 C72.1894002,11.0006071 72.3874326,10.9007755 72.3874326,10.5885636 L72.3874326,5.23009076 L72.0851031,5.23009076 C71.1998984,5.23009076 70.8876674,5.84116141 70.4183307,7.03532446 L69.9806791,7.0156125 L70.0433894,4.8072375 L76.1691907,4.8072375 L76.231901,7.0156125 L75.8054713,7.03532446 C75.3777214,5.86214511 75.0338051,5.23009076 74.1380387,5.23009076 L73.8251476,5.23009076 L73.8251476,10.5885636 C73.8251476,10.9007755 74.0238401,11.0006071 74.9189464,11.020319 L74.9189464,11.4120147 L71.2936338,11.4120147 L71.2936338,11.020319 Z M77.0128086,11.020319 C77.8359632,10.9897973 78.0029705,10.9007755 78.0029705,10.5885636 L78.0029705,5.62115054 C78.0029705,5.30957446 77.8359632,5.21991685 77.0128086,5.18939511 L77.0128086,4.8072375 L80.4308474,4.8072375 L80.4308474,5.18939511 C79.6076928,5.21991685 79.4413456,5.30957446 79.4413456,5.62115054 L79.4413456,10.5885636 C79.4413456,10.9007755 79.6076928,10.9897973 80.4308474,11.020319 L80.4308474,11.4120147 L77.0128086,11.4120147 L77.0128086,11.020319 Z M36.6091222,18.1713082 L34.4004011,18.1713082 L34.0459232,19.0748788 C33.6927655,19.9479277 33.7851806,20.078281 34.6400203,20.2188082 L34.6400203,20.590156 L32.2543904,20.590156 L32.2543904,20.2188082 C32.931001,20.0687429 33.1290333,19.7673408 33.4736096,18.9140038 L35.5258851,13.8861832 L36.4638984,13.8861832 L38.547199,19.4761125 C38.7142063,19.9282158 38.9010168,20.0979929 39.6409978,20.2188082 L39.6409978,20.590156 L36.1510073,20.590156 L36.1510073,20.2188082 C37.0883605,20.1685745 37.2553678,19.9784495 37.0784589,19.4862864 L36.6091222,18.1713082 Z M36.4638984,17.7503625 L35.5978369,15.2711071 L35.5258851,15.2711071 L34.5561866,17.7503625 L36.4638984,17.7503625 Z M43.7772999,15.1305163 C43.5997309,14.6091033 43.4650689,14.4374185 42.8505084,14.3579348 L42.8505084,13.9859511 L46.0183662,13.9859511 L46.0183662,14.3579348 C45.215675,14.3979946 45.0902545,14.6186413 45.2051133,14.9696413 L46.4863827,19.1854565 L46.5596547,19.1854565 L47.6950403,15.6519293 C48.0072713,14.6987609 47.8825109,14.4876522 46.9656211,14.3579348 L46.9656211,13.9859511 L49.6436788,13.9859511 L49.6436788,14.3579348 C48.9135995,14.5181739 48.653517,14.7591685 48.3412859,15.6423913 L46.622365,20.7007337 L45.6216414,20.7007337 L44.3185884,16.7767826 L42.7983599,20.7007337 L41.7877347,20.7007337 L39.9539549,15.0701087 C39.7975094,14.5989293 39.6410638,14.4876522 38.9532314,14.3579348 L38.9532314,13.9859511 L42.0689407,13.9859511 L42.0689407,14.3579348 C41.3395214,14.3979946 41.3084964,14.5989293 41.4127934,14.9696413 L42.6729394,19.1746467 L42.7462114,19.1746467 L44.0380425,15.9126359 L43.7772999,15.1305163 Z M53.2072713,18.1713082 L50.9972301,18.1713082 L50.6440724,19.0748788 C50.2889343,19.9479277 50.3826696,20.078281 51.2368493,20.2188082 L51.2368493,20.590156 L48.8512193,20.590156 L48.8512193,20.2188082 C49.52849,20.0687429 49.7265224,19.7673408 50.0704386,18.9140038 L52.1227141,13.8861832 L53.0600673,13.8861832 L55.1440279,19.4761125 C55.3110352,19.9282158 55.4985059,20.0979929 56.2378267,20.2188082 L56.2378267,20.590156 L52.7478362,20.590156 L52.7478362,20.2188082 C53.6851895,20.1685745 53.8521968,19.9784495 53.6752878,19.4862864 L53.2072713,18.1713082 Z M53.0600673,17.7503625 L52.195986,15.2711071 L52.1227141,15.2711071 L51.1543358,17.7503625 L53.0600673,17.7503625 Z M58.8531742,19.7669592 C58.8531742,20.0982473 59.0828918,20.1681929 59.8017493,20.1987147 L59.8017493,20.5897745 L56.4358591,20.5897745 L56.4358591,20.1987147 C57.2590136,20.1681929 57.4154592,20.0785353 57.4154592,19.7669592 L57.4154592,14.7995462 C57.4154592,14.4879701 57.2590136,14.3976766 56.4358591,14.3677908 L56.4358591,13.986269 L59.7284773,13.986269 C61.812438,13.986269 62.4269984,14.7594864 62.4269984,15.5924755 C62.4269984,16.3949429 61.9583218,16.9971114 60.5305084,17.2482799 L60.5305084,17.2781658 C61.8850498,17.3385734 62.1669159,17.8504484 62.2705528,18.6026821 L62.3959733,19.4363071 C62.4791469,20.0683614 62.656716,20.1891766 63.3861352,20.2292364 L63.3861352,20.6202962 C63.1458559,20.640644 62.8752117,20.6501821 62.6771793,20.6501821 C61.1866557,20.6501821 60.9476966,20.309356 60.8849864,19.456019 L60.8229362,18.6828016 C60.7595659,17.7099212 60.4374332,17.4886386 59.3640977,17.4886386 L58.8531742,17.4886386 L58.8531742,19.7669592 Z M59.4677347,17.0778668 C60.6559289,17.0778668 60.9272333,16.6359375 60.9272333,15.6719592 C60.9272333,14.8192582 60.5516319,14.4078505 59.3957829,14.4078505 L58.8531742,14.4078505 L58.8531742,17.0778668 L59.4677347,17.0778668 Z M63.6253583,20.1989054 C64.4485129,20.1683837 64.6042983,20.0780902 64.6042983,19.76715 L64.6042983,14.799737 C64.6042983,14.487525 64.4485129,14.3978674 63.6253583,14.3679815 L63.6253583,13.9858239 L66.7509692,13.9858239 C69.3141682,13.9858239 70.5327274,15.2607424 70.5327274,17.1581772 C70.5327274,18.9850304 69.5221022,20.5899652 66.8968531,20.5899652 L63.6253583,20.5899652 L63.6253583,20.1989054 Z M66.719284,20.1683837 C68.4593285,20.1683837 68.9801536,19.3156826 68.9801536,17.2478348 C68.9801536,15.1704489 68.1886842,14.4074054 66.6255487,14.4074054 L66.0426734,14.4074054 L66.0426734,20.1683837 L66.719284,20.1683837 Z M71.4496173,18.5228168 L71.8978305,18.5228168 C72.4292174,19.6565723 73.1375132,20.3191484 74.0022545,20.3191484 C74.9085827,20.3191484 75.2841841,19.7277897 75.2841841,19.1955668 C75.2841841,18.5031049 74.8254091,18.2417625 73.6266531,17.8602408 C72.5744411,17.5391266 71.5327909,17.147431 71.5327909,15.9132082 C71.5327909,14.6484636 72.5229527,13.8256484 73.9184208,13.8256484 C74.4709311,13.8256484 74.9712929,13.9560016 75.2940857,14.0971647 L75.6069768,13.7754147 L75.981258,13.7754147 L75.981258,15.7828549 L75.5442666,15.7828549 C75.1270784,14.8398603 74.5336414,14.2574038 73.7738572,14.2574038 C73.1375132,14.2574038 72.6688366,14.6586375 72.6688366,15.3110397 C72.6688366,15.9933277 73.1791,16.2139745 74.3250473,16.5662462 C75.2841841,16.8670125 76.3047109,17.2587082 76.3047109,18.5031049 C76.3047109,19.6165125 75.6168785,20.7509038 73.8563707,20.7509038 C73.2939587,20.7509038 72.6477131,20.6402625 72.2417467,20.4495016 L71.845682,20.7909636 L71.4496173,20.7909636 L71.4496173,18.5228168 Z M0,38.8257717 L0,0.975 L1.16905109,0.975 L1.16905109,38.8257717 L0,38.8257717 Z M89,38.8257717 L89,0.975 L90.1690511,0.975 L90.1690511,38.8257717 L89,38.8257717 Z M18.7112206,4.66842717 C17.6669299,3.56582935 16.2325154,2.81168804 14.6185516,2.60948152 L14.6185516,1.47445435 C15.9064221,1.6111663 17.1018775,2.04737283 18.1270251,2.7080413 L18.1270251,0.301275 L19.2960762,0.301275 L19.2960762,2.7080413 C20.3205636,2.04737283 21.5166791,1.6111663 22.8045497,1.47445435 L22.8045497,2.60948152 C21.1899257,2.81168804 19.7555113,3.56582935 18.7112206,4.66842717 Z M23.681371,4.80755543 L25.7290257,4.80755543 L25.7290257,5.93368043 L23.681371,5.93368043 C21.9056807,5.93368043 20.4653253,7.32114783 20.4653253,9.03227283 L20.4653253,12.4678761 C21.2666963,11.6367946 22.4106633,11.0034685 23.681371,11.0034685 L24.5593145,11.0034685 L24.5593145,12.1302293 L23.681371,12.1302293 C21.9056807,12.1302293 20.4653253,13.516425 20.4653253,15.22755 L20.4653253,19.4522674 L19.2956141,19.4522674 L19.2956141,15.22755 L19.2956141,9.03227283 C19.2956141,6.69926739 21.2594351,4.80755543 23.681371,4.80755543 Z M13.7414662,4.80755543 C16.1634021,4.80755543 18.1272231,6.69926739 18.1272231,9.03227283 L18.1272231,15.22755 L18.1272231,19.4522674 L16.9575119,19.4522674 L16.9575119,15.22755 C16.9575119,13.516425 15.5171565,12.1302293 13.7414662,12.1302293 L12.8635227,12.1302293 L12.8635227,11.0034685 L13.7414662,11.0034685 C15.0115138,11.0034685 16.1561409,11.6367946 16.9575119,12.4678761 L16.9575119,9.03227283 C16.9575119,7.32114783 15.5171565,5.93368043 13.7414662,5.93368043 L11.6944716,5.93368043 L11.6944716,4.80755543 L13.7414662,4.80755543 Z M23.681371,20.5788375 C25.4577214,20.5788375 26.8974167,19.1913701 26.8974167,17.4802451 L26.8974167,4.80736467 L28.0671279,4.80736467 L28.0671279,17.4802451 C28.0671279,19.8138864 26.103967,21.7049625 23.681371,21.7049625 L21.6350365,21.7049625 C20.989451,21.7049625 20.4653253,22.2092071 20.4653253,22.8317234 L19.2956141,22.8317234 C19.2956141,21.5873266 20.3432053,20.5788375 21.6350365,20.5788375 L23.681371,20.5788375 Z M13.7414662,20.5788375 L15.7878007,20.5788375 C17.0796319,20.5788375 18.1272231,21.5873266 18.1272231,22.8317234 L16.9575119,22.8317234 C16.9575119,22.2092071 16.4340463,21.7049625 15.7878007,21.7049625 L13.7414662,21.7049625 C11.3182101,21.7049625 9.3557093,19.8138864 9.3557093,17.4802451 L9.3557093,4.80736467 L10.5254205,4.80736467 L10.5254205,17.4802451 C10.5254205,19.1913701 11.9657759,20.5788375 13.7414662,20.5788375 Z M8,38.3217391 L8,27.3 L83.6521739,27.3 L83.6521739,38.3217391 L8,38.3217391 Z M14.6820222,30.5528332 L14.9421047,31.3349527 L13.6509337,34.5969636 L13.5770016,34.5969636 L12.3168556,30.3919582 C12.2132187,30.0212462 12.2442437,29.8203114 12.9730029,29.7802516 L12.9730029,29.4082679 L9.85795367,29.4082679 L9.85795367,29.7802516 C10.545126,29.9106049 10.7022317,30.0212462 10.8580171,30.4924255 L12.6917969,36.1230505 L13.7024221,36.1230505 L15.2233107,32.1990995 L16.5263637,36.1230505 L17.5264272,36.1230505 L19.244688,31.0647082 C19.5575792,30.1814853 19.8183218,29.9404908 20.547741,29.7802516 L20.547741,29.4082679 L17.8703434,29.4082679 L17.8703434,29.7802516 C18.7872333,29.9106049 18.9119937,30.1210777 18.5997626,31.0742462 L17.4637169,34.6077734 L17.391105,34.6077734 L16.1091755,30.3919582 C15.9949768,30.0409582 16.1197372,29.8203114 16.9224284,29.7802516 L16.9224284,29.4082679 L13.7552307,29.4082679 L13.7552307,29.7802516 C14.3691311,29.8597353 14.5044532,30.0314201 14.6820222,30.5528332 Z M20.8499384,35.6211587 L20.8499384,36.0122185 L24.267317,36.0122185 L24.267317,35.6211587 C23.4441625,35.590637 23.2778153,35.5009794 23.2778153,35.1894033 L23.2778153,30.2219902 C23.2778153,29.91105 23.4441625,29.8201206 24.267317,29.7902348 L24.267317,29.4080772 L20.8499384,29.4080772 L20.8499384,29.7902348 C21.673093,29.8201206 21.8387801,29.91105 21.8387801,30.2219902 L21.8387801,35.1894033 C21.8387801,35.5009794 21.673093,35.590637 20.8499384,35.6211587 Z M26.787675,30.8838033 L30.9140095,36.1227326 L31.6434288,36.1227326 L31.6434288,31.1750315 C31.6434288,30.241575 31.7167007,29.9109228 32.6434922,29.7805696 L32.6434922,29.4085859 L29.9245078,29.4085859 L29.9245078,29.7805696 C30.9140095,29.890575 31.1331653,30.241575 31.1331653,31.1750315 L31.1331653,34.1356402 L31.1014802,34.1356402 L27.3718705,29.4085859 L25.1730511,29.4085859 L25.1730511,29.7901076 C26.0173291,29.8104554 26.2358248,30.1614554 26.2358248,30.6129228 L26.2358248,34.2361076 C26.2358248,35.1892761 26.1011628,35.5103902 25.1730511,35.6407435 L25.1730511,36.0120913 L27.8722323,36.0120913 L27.8722323,35.6407435 C26.8715087,35.5205641 26.7467483,35.179738 26.7467483,34.2361076 L26.7467483,30.8838033 L26.787675,30.8838033 Z M34.8101644,30.8838033 L38.9364989,36.1227326 L39.6659181,36.1227326 L39.6659181,31.1750315 C39.6659181,30.241575 39.7391901,29.9109228 40.6659816,29.7805696 L40.6659816,29.4085859 L37.9469971,29.4085859 L37.9469971,29.7805696 C38.9364989,29.890575 39.1556547,30.241575 39.1556547,31.1750315 L39.1556547,34.1356402 L39.1239695,34.1356402 L35.3943599,29.4085859 L33.1955405,29.4085859 L33.1955405,29.7901076 C34.0398185,29.8104554 34.2583142,30.1614554 34.2583142,30.6129228 L34.2583142,34.2361076 C34.2583142,35.1892761 34.1229921,35.5103902 33.1955405,35.6407435 L33.1955405,36.0120913 L35.8947217,36.0120913 L35.8947217,35.6407435 C34.8939981,35.5205641 34.7692377,35.179738 34.7692377,34.2361076 L34.7692377,30.8838033 L34.8101644,30.8838033 Z M41.1862786,35.6211587 L41.1862786,36.0122185 L47.2922767,36.0122185 L47.3761104,33.704012 L46.9272371,33.6944739 C46.5100489,34.9191587 46.1357677,35.570925 44.687491,35.570925 L43.6042539,35.570925 L43.6042539,32.8513109 L43.9897569,32.8513109 C44.7086144,32.8513109 44.9686969,32.9416043 45.280928,33.9151206 L45.6565294,33.9151206 L45.6565294,31.3659196 L45.280928,31.3659196 C44.9686969,32.3394359 44.7086144,32.4195554 43.9897569,32.4195554 L43.6042539,32.4195554 L43.6042539,29.8302946 L44.7396395,29.8302946 C45.9588588,29.8302946 46.2506265,30.4019413 46.6361295,31.5267946 L47.073781,31.5166207 L47.0104107,29.4080772 L41.1862786,29.4080772 L41.1862786,29.7902348 C42.0094332,29.8201206 42.1658788,29.91105 42.1658788,30.2219902 L42.1658788,35.1894033 C42.1658788,35.5009794 42.0094332,35.590637 41.1862786,35.6211587 Z M50.6776401,35.1892761 L50.6776401,32.9109554 L51.1885636,32.9109554 C52.2618991,32.9109554 52.5846918,33.132238 52.6474021,34.1051185 L52.7094522,34.8783359 C52.7721625,35.7316728 53.0117817,36.0724989 54.5016452,36.0724989 C54.6996776,36.0724989 54.9703218,36.0629609 55.2106011,36.042613 L55.2106011,35.6515533 C54.4811818,35.6114935 54.3042729,35.4906783 54.2204392,34.8586239 L54.0956788,34.0249989 C53.9913818,33.2727652 53.7095157,32.7608902 52.3556344,32.7004826 L52.3556344,32.6705967 C53.7827877,32.4194283 54.2514643,31.8172598 54.2514643,31.0147924 C54.2514643,30.1818033 53.6375639,29.4085859 51.5536033,29.4085859 L48.2609851,29.4085859 L48.2609851,29.7901076 C49.0834795,29.8199935 49.2405852,29.9109228 49.2405852,30.221863 L49.2405852,35.1892761 C49.2405852,35.5008522 49.0834795,35.5905098 48.2609851,35.6210315 L48.2609851,36.0120913 L51.6262152,36.0120913 L51.6262152,35.6210315 C50.9073577,35.5905098 50.6776401,35.5205641 50.6776401,35.1892761 Z M51.2928607,32.5001837 L50.6776401,32.5001837 L50.6776401,29.8301674 L51.2202488,29.8301674 C52.3767579,29.8301674 52.7516991,30.241575 52.7516991,31.0942761 C52.7516991,32.0582544 52.4803948,32.5001837 51.2928607,32.5001837 Z M59.9213291,35.1392967 L59.9213291,36.0123457 L64.7242742,36.0123457 L64.7764227,34.0354272 L64.4120432,34.0150794 C64.1407388,34.7978348 63.96449,35.0191174 63.2132872,35.0191174 L61.0052263,35.0191174 L61.0052263,34.9288239 L62.7030238,33.8650141 C64.1513005,32.9817913 64.6721257,32.2492696 64.6721257,31.4061065 C64.6721257,30.4020685 63.9116814,29.6396609 62.3175208,29.6396609 C61.0256896,29.6396609 59.9840394,30.311775 59.9840394,31.2954652 C59.9840394,31.7774544 60.3272955,32.1488022 60.8276573,32.1488022 C61.3379207,32.1488022 61.6098851,31.7672804 61.6098851,31.3558728 C61.6098851,30.964813 61.328019,30.6932967 61.0052263,30.5928294 C61.1926969,30.2818891 61.6098851,30.0809544 62.1089267,30.0809544 C62.8594694,30.0809544 63.3070225,30.5629435 63.3070225,31.3654109 C63.3070225,32.2689815 62.9637664,32.7706826 61.401291,33.9858294 L59.9213291,35.1392967 Z M65.6722552,32.9214473 C65.6722552,34.7781864 66.6723186,36.1732842 68.4229248,36.1732842 C70.1326043,36.1732842 71.1841561,34.7279527 71.1841561,32.8915614 C71.1841561,31.0348223 70.1840927,29.6390886 68.4229248,29.6390886 C66.7251273,29.6390886 65.6722552,31.0742462 65.6722552,32.9214473 Z M69.6837309,32.9112734 C69.6837309,34.7877245 69.4025249,35.7415288 68.4750733,35.7415288 C67.5482818,35.7415288 67.1726804,34.7877245 67.1726804,32.9010995 C67.1726804,31.0151103 67.4538864,30.061306 68.381338,30.061306 C69.3094497,30.061306 69.6837309,31.0151103 69.6837309,32.9112734 Z M71.9135094,35.6211587 L71.9135094,36.0122185 L75.6952675,36.0122185 L75.6952675,35.6211587 C74.7790378,35.6014467 74.48661,35.5206913 74.48661,35.2498109 L74.48661,29.7400011 L71.8607007,29.920588 L71.8607007,30.2919359 C72.8917893,30.2722239 73.1109451,30.4826967 73.1109451,30.9646859 L73.1109451,35.2498109 C73.1109451,35.5206913 72.8191774,35.6014467 71.9135094,35.6211587 Z M76.414059,33.5530565 C76.414059,35.0187359 77.2788004,36.1633011 79.0082831,36.1633011 C80.696179,36.1633011 81.4883085,35.0384478 81.4883085,33.784513 C81.4883085,32.6704696 80.7278642,31.8877141 79.4769597,31.8877141 C78.8623992,31.8877141 78.2267153,32.1687685 77.851774,32.7207033 L77.7890638,32.7009913 C78.0709299,30.8836761 79.643967,30.2217359 80.9879467,29.9610294 L80.9879467,29.5890457 C79.2789273,29.7804424 78.2267153,30.2319098 77.4768328,30.9548935 C76.7784386,31.6263717 76.414059,32.4803446 76.414059,33.5530565 Z M80.1133037,33.9352141 C80.1133037,35.008562 79.821536,35.7315456 79.0498699,35.7315456 C78.3521358,35.7315456 77.8313107,35.169437 77.8313107,34.135513 C77.8313107,32.9114641 78.4148461,32.429475 79.0393082,32.429475 C79.8109743,32.429475 80.1133037,32.9210022 80.1133037,33.9352141 Z" id="Combined-Shape"></path>
                    </g>
                </g>
            </g>
        </g>
    </g>
</svg>