<?xml version="1.0" encoding="UTF-8"?>
<svg width="170px" height="19px" viewBox="0 0 170 19" version="1.1" xmlns="http://www.w3.org/2000/svg" xmlns:xlink="http://www.w3.org/1999/xlink">
    <!-- Generator: Sketch 47.1 (45422) - http://www.bohemiancoding.com/sketch -->
    <title>Logo</title>
    <desc>Created with Sketch.</desc>
    <defs></defs>
    <g id="Page-1" stroke="none" stroke-width="1" fill="none" fill-rule="evenodd">
        <g id="Desktop" transform="translate(-177.000000, -35.000000)">
            <g id="Group-6" transform="translate(178.000000, 20.000000)">
                <g id="Logotype" transform="translate(-1.000000, 15.000000)">
                    <g id="Logo">
                        <path d="M130.4974,1.2513 L138.9084,17.7593 L134.3734,17.7593 L130.49675,10.151122 L126.6201,17.7593 L122.0851,17.7593 L128.2294,5.7013 L130.4974,1.2513 Z M48.0971,1.2511 L41.5911,12.7821 L41.5911,17.7591 L37.4641,17.7591 L37.4641,12.7821 L30.9331,1.2511 L35.4731,1.2511 L39.5031,8.4371 L43.5571,1.2511 L48.0971,1.2511 Z M9.6334,18.2081 C4.8254,18.2081 0.9274,14.3111 0.9274,9.5021 C0.9274,4.6941 4.8254,0.7961 9.6334,0.7961 C14.4414,0.7961 18.3384,4.6941 18.3384,9.5021 C18.3384,14.3111 14.4414,18.2081 9.6334,18.2081 Z M14.4364,9.5021 C14.4364,6.8501 12.2864,4.6991 9.6334,4.6991 C6.9804,4.6991 4.8304,6.8501 4.8304,9.5021 C4.8304,12.1541 6.9804,14.3061 9.6334,14.3061 C12.2864,14.3061 14.4364,12.1541 14.4364,9.5021 Z M161.5878,4.8195 L161.5878,7.8305 L168.9198,7.8305 L168.9198,11.3255 L161.5878,11.3255 L161.5878,14.1905 L169.9628,14.1905 L169.9628,17.7585 L157.4848,17.7585 L157.4848,1.2515 L169.9628,1.2515 L169.9628,4.8195 L161.5878,4.8195 Z M155.5811,9.4562 C155.5811,14.3602 151.8661,17.7592 146.6711,17.7592 L140.0431,17.7592 L140.0431,1.2512 L146.6711,1.2512 C151.8661,1.2512 155.5811,4.6252 155.5811,9.4562 Z M151.4291,9.4562 C151.4291,6.9072 149.3661,4.9402 146.6711,4.9402 L144.1461,4.9402 L144.1461,14.0682 L146.6711,14.0682 C149.3661,14.0682 151.4291,12.0782 151.4291,9.4562 Z M117.3005,17.7593 L114.1685,12.9763 L114.1445,12.9763 L111.0375,12.9763 L111.0375,17.7593 L106.9345,17.7593 L106.9345,1.2513 L114.1445,1.2513 C118.2475,1.2513 120.9905,3.4843 120.9905,7.0533 C120.9905,9.2143 119.9465,10.9613 118.1985,11.9803 L122.0825,17.7593 L117.3005,17.7593 Z M111.0375,9.2863 L114.0715,9.2863 C115.6495,9.2863 116.8885,8.4123 116.8885,7.0533 C116.8885,5.7183 115.6495,4.8683 114.0715,4.8683 L111.0375,4.8683 L111.0375,9.2863 Z M104.7484,4.9162 L99.4794,4.9162 L99.4794,17.7592 L95.4014,17.7592 L95.4014,4.9162 L90.1334,4.9162 L90.1334,1.2512 L104.7484,1.2512 L104.7484,4.9162 Z M82.7762,7.2961 C82.7762,11.1551 79.9602,13.5591 75.4682,13.5591 L73.2352,13.5591 L73.2352,17.7591 L69.1322,17.7591 L69.1322,1.2511 L75.7842,1.2511 C80.1052,1.2511 82.7762,3.5811 82.7762,7.2961 Z M78.6972,7.2961 C78.6972,5.8151 77.5082,4.8441 75.7112,4.8441 L73.2352,4.8441 L73.2352,9.9661 L75.7112,9.9661 C77.5082,9.9661 78.6972,8.9221 78.6972,7.2961 Z M66.5702,17.7589 L62.4672,17.7589 L62.4672,9.4809 L58.8012,15.1369 L58.8012,15.1609 L56.5192,15.1609 L56.5192,15.1369 L52.8292,9.4319 L52.8542,17.7589 L48.7512,17.7589 L48.7512,1.2509 L51.8102,1.2509 L57.6602,10.0639 L63.5112,1.2509 L66.5702,1.2509 L66.5702,17.7589 Z M32.7846,14.0929 L32.7846,17.7589 L20.5256,17.7589 L20.5256,1.2509 L24.6276,1.2509 L24.6276,14.0929 L32.7846,14.0929 Z" id="Combined-Shape" fill="#FFFFFF"></path>
                        <path d="M15.8312666,15.6974813 C14.2456441,17.2849536 12.0540986,18.267 9.633,18.267 C7.21213112,18.267 5.02052143,17.2851399 3.43468428,15.6979331 L9.6332,9.463 L15.8312666,15.6974813 Z" id="Combined-Shape" fill="#12C544"></path>
                    </g>
                </g>
            </g>
        </g>
    </g>
</svg>