<?xml version="1.0" encoding="UTF-8"?>
<svg width="89px" height="39px" viewBox="0 0 89 39" version="1.1" xmlns="http://www.w3.org/2000/svg" xmlns:xlink="http://www.w3.org/1999/xlink">
    <!-- Generator: Sketch 47.1 (45422) - http://www.bohemiancoding.com/sketch -->
    <title>ShowFx World</title>
    <desc>Created with Sketch.</desc>
    <defs></defs>
    <g id="Page-1" stroke="none" stroke-width="1" fill="none" fill-rule="evenodd">
        <g id="Desktop" transform="translate(-1379.000000, -639.000000)" fill-rule="nonzero" fill="#7D8694">
            <g id="Group-5" transform="translate(159.000000, 172.000000)">
                <g id="LEFA_awards" transform="translate(942.000000, 467.000000)">
                    <g id="Group-2" transform="translate(278.000000, 0.000000)">
                        <path d="M14.7030097,17.2289709 L13.2511879,18.7034486 L13.0770044,19.123231 C12.6880264,18.9636503 12.3663763,18.8522779 12.1120445,18.7891105 C11.8577128,18.7259432 11.6075405,18.69436 11.3615202,18.69436 C11.0689556,18.69436 10.8445486,18.7625132 10.6882925,18.8988217 C10.5320363,19.0351302 10.4539095,19.2129936 10.4539095,19.4324171 C10.4539095,19.5687256 10.4854927,19.6875782 10.54866,19.7889785 C10.6118274,19.8903787 10.712395,19.9884529 10.8503658,20.0832039 C10.9883366,20.177955 11.3149735,20.3483381 11.8302862,20.5943584 C12.5118289,20.920169 12.9789279,21.2468059 13.2315974,21.5742788 C13.4842669,21.9017517 13.6105997,22.3031909 13.6105997,22.7786085 C13.6105997,23.4368789 13.3737256,23.9555085 12.8999704,24.3345127 C12.4262151,24.7135169 11.7671234,24.9030161 10.9226755,24.9030161 C10.1447195,24.9030161 9.45653796,24.756736 8.85811027,24.4641714 L8.85811027,23.0279521 C9.35015081,23.2473756 9.7665505,23.4019671 10.1073218,23.4917312 C10.4480931,23.5814954 10.7597695,23.6263768 11.0423604,23.6263768 C11.3814694,23.6263768 11.6416153,23.5615481 11.8228059,23.4318888 C12.0039965,23.3022294 12.0945905,23.1094056 12.0945905,22.8534116 C12.0945905,22.7104538 12.0546959,22.5832899 11.9749055,22.4719158 C11.8951152,22.3605418 11.7779249,22.2533251 11.623331,22.1502626 C11.4687372,22.0472 11.1537363,21.8826349 10.6783187,21.6565622 C10.2328225,21.4471125 9.89870543,21.2459773 9.67595735,21.0531506 C9.45320927,20.8603239 9.27534593,20.6359169 9.142362,20.3799228 C9.00937807,20.1239288 8.9428871,19.8247194 8.9428871,19.4822858 C8.9428871,18.8373137 9.16147616,18.3303201 9.59866083,17.9612897 C10.0358455,17.5922593 10.6400822,17.4077469 11.411389,17.4077469 C11.7903932,17.4077469 12.1519378,17.4526283 12.4960337,17.5423924 C12.5892026,17.5666973 12.6835289,17.5936832 12.7790127,17.6233502 L19.0184981,11.2864968 L23.6004896,14.5692972 L32.2033161,6.48597995 L41.2967721,13.3340931 L51.8526585,5.47131148 L60.0494025,9.59884301 L65.0923402,6.36620501 C59.3886272,3.74948561 52.4461085,1.89763872 44.2197911,1.89763872 C16.1899116,1.89763872 3.64754098,23.4953189 3.64754098,23.4953189 C3.64754098,23.4953189 14.9552289,2.07625552e-15 44.2623162,0 C73.5694036,0 85.3746719,23.3975475 85.3746719,23.3975475 C85.3746719,23.3975475 79.1938899,13.2728818 66.2571427,6.91932388 L60.1145928,10.8568384 L51.9642387,6.75266681 L41.2931769,14.7012393 L32.2811022,7.91441294 L23.6943241,15.9826509 L19.1417712,12.720942 L14.8854288,17.0437052 L16.2240058,17.0437052 L16.2240058,18.6245437 C16.2240058,18.7475539 16.2123699,19.0367896 16.1890977,19.4922595 L16.1541896,19.9410781 L16.2339796,19.9410781 C16.5730886,19.3958439 17.1116654,19.123231 17.8497262,19.123231 C18.5046721,19.123231 19.0016921,19.299432 19.3408011,19.6518395 C19.6799101,20.0042469 19.8494621,20.5095782 19.8494621,21.1678487 L19.8494621,24.8032787 L18.328466,24.8032787 L18.328466,21.546851 C18.328466,20.7422982 18.0292566,20.3400279 17.430829,20.3400279 C17.0052804,20.3400279 16.6977597,20.4846457 16.5082576,20.7738858 C16.3187555,21.0631258 16.2240058,21.5318871 16.2240058,22.1801838 L16.2240058,24.8032787 L14.7030097,24.8032787 L14.7030097,17.2289709 Z M26.3725762,22.0056433 C26.3725762,22.9132586 26.1332087,23.6230497 25.6544666,24.1350378 C25.1757244,24.6470259 24.5091525,24.9030161 23.6547307,24.9030161 C23.1194704,24.9030161 22.6473845,24.7858258 22.2384589,24.5514416 C21.8295334,24.3170575 21.5153635,23.9804469 21.2959401,23.5416 C21.0765166,23.102753 20.9668065,22.5907725 20.9668065,22.0056433 C20.9668065,21.0947033 21.2045117,20.3865745 21.6799292,19.8812356 C22.1553468,19.3758967 22.823581,19.123231 23.684652,19.123231 C24.2199123,19.123231 24.6919981,19.2395902 25.1009237,19.4723121 C25.5098493,19.7050339 25.8240191,20.039151 26.0434426,20.4746734 C26.2628661,20.9101958 26.3725762,21.420514 26.3725762,22.0056433 Z M22.5177238,22.0056433 C22.5177238,22.5575266 22.6083177,22.9747574 22.7895083,23.2573482 C22.970699,23.5399391 23.2657526,23.6812324 23.6746782,23.6812324 C24.0802792,23.6812324 24.3720083,23.5407702 24.5498743,23.2598417 C24.7277403,22.9789131 24.816672,22.5608512 24.816672,22.0056433 C24.816672,21.4537599 24.7269092,21.0398537 24.5473809,20.763912 C24.3678526,20.4879704 24.07363,20.3500016 23.6647045,20.3500016 C23.2591035,20.3500016 22.9665432,20.4871392 22.7870149,20.7614186 C22.6074866,21.0356979 22.5177238,21.4504353 22.5177238,22.0056433 Z M31.8983158,24.8032787 L31.4694448,22.8534116 L30.8909676,20.3898966 L30.8560595,20.3898966 L29.8387375,24.8032787 L28.2030433,24.8032787 L26.6172179,19.2279553 L28.1332271,19.2279553 L28.7765337,21.6964572 C28.8795962,22.1386287 28.9843195,22.7486834 29.0907066,23.5266393 L29.1206279,23.5266393 C29.1339263,23.2739699 29.1921059,22.8733618 29.2951684,22.3248031 L29.3749584,21.9009189 L30.0631468,19.2279553 L31.7387359,19.2279553 L32.3920162,21.9009189 C32.4053146,21.9740601 32.426093,22.0821079 32.4543521,22.2250656 C32.4826112,22.3680234 32.5100387,22.5201215 32.5366355,22.6813645 C32.5632323,22.8426075 32.5873353,23.0005235 32.6089451,23.1551173 C32.630555,23.3097112 32.6430221,23.4335506 32.6463467,23.5266393 L32.6762679,23.5266393 C32.7061893,23.2872683 32.7593821,22.9589691 32.8358478,22.541732 C32.9123136,22.124495 32.9671686,21.8427395 33.0004146,21.6964572 L33.6686555,19.2279553 L35.1597304,19.2279553 L33.5539575,24.8032787 L31.8983158,24.8032787 Z M37.5886222,24.8032787 L36.0676261,24.8032787 L36.0676261,17.5124712 L40.2466252,17.5124712 L40.2466252,18.7791368 L37.5886222,18.7791368 L37.5886222,20.6591877 L40.062111,20.6591877 L40.062111,21.9208664 L37.5886222,21.9208664 L37.5886222,24.8032787 Z M42.5857534,21.9557745 L40.7904793,19.2279553 L42.5159372,19.2279553 L43.5980885,21.0032819 L44.6902135,19.2279553 L46.4156714,19.2279553 L44.6004498,21.9557745 L46.5004482,24.8032787 L44.7700035,24.8032787 L43.5980885,22.8933065 L42.4211866,24.8032787 L40.6957287,24.8032787 L42.5857534,21.9557745 Z M57.0033715,24.8032787 L55.2430055,24.8032787 L54.2556048,20.9733607 C54.2190342,20.8370521 54.1566989,20.5552967 54.0685971,20.1280858 C53.9804952,19.7008749 53.9297959,19.4141326 53.9164975,19.2678503 C53.8965499,19.4473786 53.8466817,19.7357832 53.7668913,20.1330726 C53.6871009,20.5303621 53.6255968,20.8137799 53.582377,20.9833344 L52.5999631,24.8032787 L50.844584,24.8032787 L48.9844806,17.5124712 L50.5054767,17.5124712 L51.4380219,21.4919954 C51.6009272,22.2267316 51.7189487,22.8633826 51.7920898,23.4019675 C51.8120374,23.2124654 51.8577499,22.919074 51.9292288,22.5217845 C52.0007077,22.1244951 52.0680298,21.8161432 52.1311971,21.5967197 L53.193401,17.5124712 L54.6545546,17.5124712 L55.7167584,21.5967197 C55.7633028,21.7795726 55.8214824,22.0588347 55.891299,22.4345143 C55.9611155,22.8101939 56.0143083,23.1326751 56.0508789,23.4019675 C56.0841249,23.1426489 56.1373176,22.8193365 56.2104588,22.4320208 C56.2836,22.0447051 56.3500909,21.7313665 56.4099337,21.4919954 L57.337492,17.5124712 L58.8584881,17.5124712 L57.0033715,24.8032787 Z M64.409162,22.0056433 C64.409162,22.9132586 64.1697946,23.6230497 63.6910524,24.1350378 C63.2123103,24.6470259 62.5457383,24.9030161 61.6913166,24.9030161 C61.1560562,24.9030161 60.6839704,24.7858258 60.2750448,24.5514416 C59.8661192,24.3170575 59.5519494,23.9804469 59.3325259,23.5416 C59.1131024,23.102753 59.0033923,22.5907725 59.0033923,22.0056433 C59.0033923,21.0947033 59.2410975,20.3865745 59.7165151,19.8812356 C60.1919326,19.3758967 60.8601669,19.123231 61.7212378,19.123231 C62.2564981,19.123231 62.728584,19.2395902 63.1375096,19.4723121 C63.5464352,19.7050339 63.860605,20.039151 64.0800285,20.4746734 C64.2994519,20.9101958 64.409162,21.420514 64.409162,22.0056433 Z M60.5543096,22.0056433 C60.5543096,22.5575266 60.6449036,22.9747574 60.8260942,23.2573482 C61.0072848,23.5399391 61.3023385,23.6812324 61.7112641,23.6812324 C62.116865,23.6812324 62.4085942,23.5407702 62.5864602,23.2598417 C62.7643262,22.9789131 62.8532578,22.5608512 62.8532578,22.0056433 C62.8532578,21.4537599 62.763495,21.0398537 62.5839667,20.763912 C62.4044384,20.4879704 62.1102159,20.3500016 61.7012903,20.3500016 C61.2956893,20.3500016 61.0031291,20.4871392 60.8236008,20.7614186 C60.6440725,21.0356979 60.5543096,21.4504353 60.5543096,22.0056433 Z M68.6682361,19.123231 C68.8743612,19.123231 69.0455754,19.1381914 69.1818839,19.1681128 L69.0671859,20.5943584 C68.9441757,20.5611124 68.794571,20.5444896 68.6183673,20.5444896 C68.132976,20.5444896 67.7548086,20.6691602 67.4838539,20.9185051 C67.2128991,21.1678499 67.0774238,21.5169275 67.0774238,21.9657483 L67.0774238,24.8032787 L65.5564277,24.8032787 L65.5564277,19.2279553 L66.7083952,19.2279553 L66.9328045,20.1654873 L67.0076075,20.1654873 C67.1804867,19.8529751 67.4140362,19.6011405 67.7082631,19.4099761 C68.0024901,19.2188117 68.3224778,19.123231 68.6682361,19.123231 Z M71.6057889,24.8032787 L70.0847928,24.8032787 L70.0847928,17.0437052 L71.6057889,17.0437052 L71.6057889,24.8032787 Z M74.8575147,24.9030161 C74.2025688,24.9030161 73.688095,24.6486882 73.3140777,24.1400247 C72.9400604,23.6313611 72.7530545,22.9265569 72.7530545,22.0255907 C72.7530545,21.1113262 72.9433849,20.3990417 73.3240514,19.8887159 C73.7047179,19.3783901 74.2291654,19.123231 74.8974097,19.123231 C75.5988999,19.123231 76.1341522,19.3958439 76.5031826,19.9410781 L76.5530513,19.9410781 C76.4765856,19.5255033 76.4383532,19.1548161 76.4383532,18.8290055 L76.4383532,17.0437052 L77.9643362,17.0437052 L77.9643362,24.8032787 L76.7974081,24.8032787 L76.5031826,24.0801822 L76.4383532,24.0801822 C76.092595,24.6287409 75.5656541,24.9030161 74.8575147,24.9030161 Z M75.39111,23.6912061 C75.780088,23.6912061 76.0651681,23.5781715 76.2463587,23.3520988 C76.4275493,23.1260261 76.5264546,22.7420408 76.5430776,22.2001313 L76.5430776,22.0355645 C76.5430776,21.4371368 76.4508213,21.0082701 76.2663061,20.7489514 C76.0817909,20.4896327 75.7817505,20.3599753 75.3661757,20.3599753 C75.0270666,20.3599753 74.7635962,20.5037621 74.5757564,20.7913398 C74.3879166,21.0789176 74.2939981,21.4969795 74.2939981,22.0455382 C74.2939981,22.5940969 74.3887477,23.0055098 74.5782498,23.2797892 C74.7677519,23.5540685 75.0387026,23.6912061 75.39111,23.6912061 Z M0.040852459,32.9927377 L0.765983607,32.9927377 L2.4205082,37.108623 L4.16695082,32.9927377 L4.2895082,32.9927377 L6.0257377,37.108623 L7.71090164,32.9927377 L8.4462459,32.9927377 L6.08701639,38.5997377 L5.9542459,38.5997377 L4.22822951,34.534918 L2.492,38.5997377 L2.35922951,38.5997377 L0.040852459,32.9927377 Z M14.2662623,36.6592459 L14.858623,36.9656393 C14.2730681,38.0550437 13.4083664,38.5997377 12.2644918,38.5997377 C11.4474386,38.5997377 10.7733797,38.3188799 10.2422951,37.7571557 C9.71121048,37.1954316 9.44567215,36.5196706 9.44567215,35.7298525 C9.44567215,34.9400343 9.71291265,34.2625711 10.2474017,33.6974426 C10.7818907,33.1323141 11.4423322,32.8497541 12.2287459,32.8497541 C13.0151597,32.8497541 13.6756012,33.1118881 14.2100902,33.6361639 C14.7445792,34.1604398 15.0220327,34.8753507 15.042459,35.780918 L10.1605902,35.780918 C10.1810165,36.4345606 10.3869789,36.9605308 10.7784836,37.3588443 C11.1699883,37.7571577 11.6448934,37.9563115 12.2032131,37.9563115 C13.1223981,37.9563115 13.8100742,37.5239606 14.2662623,36.6592459 Z M14.2662623,35.1783443 C14.1709394,34.6608772 13.9326358,34.255761 13.5513443,33.9629836 C13.1700528,33.6702062 12.7308932,33.5238197 12.2338525,33.5238197 C11.2125359,33.5238197 10.5452857,34.0753224 10.232082,35.1783443 L14.2662623,35.1783443 Z M24.4253935,38.4159016 L23.7206886,38.4159016 L23.7206886,37.4456557 C23.1623688,38.1878125 22.4849057,38.5588852 21.6882787,38.5588852 C21.2797521,38.5588852 20.9120837,38.4482443 20.5852623,38.226959 C20.258441,38.0056738 20.0269461,37.7163051 19.8907705,37.3588443 C19.754595,37.0013835 19.6865082,36.4754133 19.6865082,35.780918 L19.6865082,32.9927377 L20.3810001,32.9927377 L20.3810001,35.5766557 C20.3810001,36.209872 20.4099369,36.6388185 20.4678115,36.8635082 C20.5256861,37.0881978 20.6141989,37.2788407 20.7333525,37.4354426 C20.8525061,37.5920445 21.0039991,37.7111963 21.1878361,37.7929016 C21.3716731,37.874607 21.5946572,37.915459 21.8567951,37.915459 C22.1189331,37.915459 22.3759605,37.8507766 22.6278853,37.7214098 C22.8798101,37.5920431 23.0942833,37.4116132 23.2713115,37.1801148 C23.4483397,36.9486163 23.5674915,36.7103127 23.6287705,36.4651967 C23.6900495,36.2200807 23.7206886,35.7264518 23.7206886,34.9842951 L23.7206886,32.9927377 L24.4253935,32.9927377 L24.4253935,38.4159016 Z M26.4154919,32.9927377 L27.1201968,32.9927377 L27.1201968,33.9629836 C27.6785165,33.2208269 28.3559797,32.8497541 29.1526066,32.8497541 C29.5611333,32.8497541 29.9288017,32.9603951 30.255623,33.1816803 C30.5824443,33.4029656 30.8139393,33.6923343 30.9501148,34.0497951 C31.0862904,34.4072559 31.1543771,34.933226 31.1543771,35.6277213 L31.1543771,38.4159016 L30.4598853,38.4159016 L30.4598853,35.8319836 C30.4598853,35.1987673 30.4309484,34.7698208 30.3730738,34.5451311 C30.3151992,34.3204415 30.2266865,34.1297986 30.1075329,33.9731967 C29.9883793,33.8165948 29.8368862,33.697443 29.6530492,33.6157377 C29.4692123,33.5340324 29.2462282,33.4931803 28.9840902,33.4931803 C28.7219523,33.4931803 28.4649248,33.5578627 28.2130001,33.6872295 C27.9610753,33.8165963 27.746602,33.9970262 27.5695738,34.2285246 C27.3925456,34.460023 27.2733938,34.6983266 27.2121148,34.9434426 C27.1508358,35.1885586 27.1201968,35.6821875 27.1201968,36.4243443 L27.1201968,38.4159016 L26.4154919,38.4159016 L26.4154919,32.9927377 Z M32.7563771,31.4811967 C32.7563771,31.3245948 32.8125487,31.1884213 32.9248935,31.0726721 C33.0372384,30.9569229 33.1734119,30.8990492 33.3334181,30.8990492 C33.4934244,30.8990492 33.6295979,30.9552207 33.7419427,31.0675656 C33.8542875,31.1799104 33.9104591,31.3160839 33.9104591,31.4760902 C33.9104591,31.6360964 33.8542875,31.7722699 33.7419427,31.8846148 C33.6295979,31.9969596 33.4934244,32.0531311 33.3334181,32.0531311 C33.1734119,32.0531311 33.0372384,31.9952574 32.9248935,31.8795082 C32.8125487,31.763759 32.7563771,31.6309898 32.7563771,31.4811967 Z M32.9810657,32.9927377 L33.6857706,32.9927377 L33.6857706,38.4159016 L32.9810657,38.4159016 L32.9810657,32.9927377 Z M36.8810165,37.558 C36.8810165,37.741837 36.9048469,37.8507758 36.9525083,37.8848197 C37.0001697,37.9188636 37.1227259,37.9358852 37.3201804,37.9358852 L37.7389181,37.9358852 L37.7389181,38.5282459 C37.4529495,38.5759073 37.2282632,38.5997377 37.0648526,38.5997377 C36.7584576,38.5997377 36.5337713,38.5248423 36.390787,38.3750492 C36.2478027,38.2252561 36.1763116,37.9903568 36.1763116,37.6703443 L36.1763116,33.5850984 L35.2162788,33.5850984 L35.2162788,32.9927377 L36.1763116,32.9927377 L36.1763116,30.8990492 L36.8810165,30.8990492 L36.8810165,32.9927377 L37.9840329,32.9927377 L37.9840329,33.5850984 L36.8810165,33.5850984 L36.8810165,37.558 Z M44.0287378,36.6592459 L44.6210985,36.9656393 C44.0355436,38.0550437 43.1708419,38.5997377 42.0269673,38.5997377 C41.2099141,38.5997377 40.5358552,38.3188799 40.0047706,37.7571557 C39.473686,37.1954316 39.2081477,36.5196706 39.2081477,35.7298525 C39.2081477,34.9400343 39.4753882,34.2625711 40.0098772,33.6974426 C40.5443662,33.1323141 41.2048077,32.8497541 41.9912214,32.8497541 C42.7776352,32.8497541 43.4380767,33.1118881 43.9725657,33.6361639 C44.5070547,34.1604398 44.7845082,34.8753507 44.8049345,35.780918 L39.9230657,35.780918 C39.943492,36.4345606 40.1494544,36.9605308 40.5409591,37.3588443 C40.9324638,37.7571577 41.4073689,37.9563115 41.9656886,37.9563115 C42.8848736,37.9563115 43.5725498,37.5239606 44.0287378,36.6592459 Z M44.0287378,35.1783443 C43.9334149,34.6608772 43.6951113,34.255761 43.3138198,33.9629836 C42.9325283,33.6702062 42.4933687,33.5238197 41.996328,33.5238197 C40.9750114,33.5238197 40.3077613,34.0753224 39.9945575,35.1783443 L44.0287378,35.1783443 Z M51.7673608,31.0420328 L51.7673608,31.7263115 C51.5018185,31.6105623 51.265217,31.5526885 51.0575493,31.5526885 C50.8498816,31.5526885 50.7154103,31.6190731 50.6541313,31.7518443 C50.5928523,31.8846154 50.5622133,32.1007909 50.5622133,32.400377 L50.5622133,32.9927377 L51.695869,32.9927377 L51.695869,33.5850984 L50.5622133,33.5850984 L50.5622133,38.4159016 L49.8575084,38.4159016 L49.8575084,33.5850984 L49.1528034,33.5850984 L49.1528034,32.9927377 L49.8575084,32.9927377 L49.8575084,32.2880328 C49.8575084,31.8114184 49.9460211,31.4607716 50.1230493,31.236082 C50.3000775,31.0113923 50.5758289,30.8990492 50.9503116,30.8990492 C51.1681925,30.8990492 51.4405395,30.9467099 51.7673608,31.0420328 Z M52.848492,31.4811967 C52.848492,31.3245948 52.9046635,31.1884213 53.0170084,31.0726721 C53.1293532,30.9569229 53.2655267,30.8990492 53.425533,30.8990492 C53.5855392,30.8990492 53.7217127,30.9552207 53.8340576,31.0675656 C53.9464024,31.1799104 54.0025739,31.3160839 54.0025739,31.4760902 C54.0025739,31.6360964 53.9464024,31.7722699 53.8340576,31.8846148 C53.7217127,31.9969596 53.5855392,32.0531311 53.425533,32.0531311 C53.2655267,32.0531311 53.1293532,31.9952574 53.0170084,31.8795082 C52.9046635,31.763759 52.848492,31.6309898 52.848492,31.4811967 Z M53.0731805,32.9927377 L53.7778854,32.9927377 L53.7778854,38.4159016 L53.0731805,38.4159016 L53.0731805,32.9927377 Z M55.6556395,32.9927377 L56.3603445,32.9927377 L56.3603445,33.9629836 C56.9186642,33.2208269 57.5961274,32.8497541 58.3927543,32.8497541 C58.8012809,32.8497541 59.1689494,32.9603951 59.4957707,33.1816803 C59.822592,33.4029656 60.0540869,33.6923343 60.1902625,34.0497951 C60.326438,34.4072559 60.3945248,34.933226 60.3945248,35.6277213 L60.3945248,38.4159016 L59.700033,38.4159016 L59.700033,35.8319836 C59.700033,35.1987673 59.6710961,34.7698208 59.6132215,34.5451311 C59.5553469,34.3204415 59.4668341,34.1297986 59.3476805,33.9731967 C59.2285269,33.8165948 59.0770339,33.697443 58.8931969,33.6157377 C58.7093599,33.5340324 58.4863758,33.4931803 58.2242379,33.4931803 C57.9621,33.4931803 57.7050725,33.5578627 57.4531477,33.6872295 C57.201223,33.8165963 56.9867497,33.9970262 56.8097215,34.2285246 C56.6326933,34.460023 56.5135415,34.6983266 56.4522625,34.9434426 C56.3909835,35.1885586 56.3603445,35.6821875 56.3603445,36.4243443 L56.3603445,38.4159016 L55.6556395,38.4159016 L55.6556395,32.9927377 Z M67.7260822,32.9927377 L67.7260822,38.4159016 L67.0418035,38.4159016 L67.0418035,37.4865082 C66.4222048,38.2286649 65.7141026,38.5997377 64.9174756,38.5997377 C64.1208487,38.5997377 63.448492,38.3154755 62.9003855,37.7469426 C62.3522789,37.1784097 62.0782297,36.5009466 62.0782297,35.7145328 C62.0782297,34.928119 62.3539811,34.2540602 62.905492,33.6923361 C63.457003,33.1306119 64.1174444,32.8497541 64.8868363,32.8497541 C65.7719773,32.8497541 66.4902925,33.2276356 67.0418035,33.9834098 L67.0418035,32.9927377 L67.7260822,32.9927377 Z M67.0826559,35.7298525 C67.0826559,35.1102537 66.8749914,34.5876879 66.4596559,34.1621393 C66.0443205,33.7365908 65.5353721,33.5238197 64.9327953,33.5238197 C64.3302185,33.5238197 63.82127,33.7433994 63.4059346,34.1825656 C62.9905992,34.6217317 62.7829346,35.1408932 62.7829346,35.7400656 C62.7829346,36.339238 62.9940036,36.8583994 63.4161477,37.2975656 C63.8382919,37.7367317 64.3438361,37.9563115 64.9327953,37.9563115 C65.5217545,37.9563115 66.0272986,37.7452425 66.4494428,37.3230984 C66.871587,36.9009542 67.0826559,36.3698775 67.0826559,35.7298525 Z M69.7366068,32.9927377 L70.4413117,32.9927377 L70.4413117,33.9629836 C70.9996314,33.2208269 71.6770946,32.8497541 72.4737215,32.8497541 C72.8822482,32.8497541 73.2499166,32.9603951 73.5767379,33.1816803 C73.9035592,33.4029656 74.1350542,33.6923343 74.2712297,34.0497951 C74.4074053,34.4072559 74.475492,34.933226 74.475492,35.6277213 L74.475492,38.4159016 L73.7810002,38.4159016 L73.7810002,35.8319836 C73.7810002,35.1987673 73.7520634,34.7698208 73.6941888,34.5451311 C73.6363141,34.3204415 73.5478014,34.1297986 73.4286478,33.9731967 C73.3094942,33.8165948 73.1580011,33.697443 72.9741642,33.6157377 C72.7903272,33.5340324 72.5673431,33.4931803 72.3052051,33.4931803 C72.0430672,33.4931803 71.7860397,33.5578627 71.534115,33.6872295 C71.2821902,33.8165963 71.067717,33.9970262 70.8906888,34.2285246 C70.7136605,34.460023 70.5945087,34.6983266 70.5332297,34.9434426 C70.4719507,35.1885586 70.4413117,35.6821875 70.4413117,36.4243443 L70.4413117,38.4159016 L69.7366068,38.4159016 L69.7366068,32.9927377 Z M81.7049183,34.1161803 L81.1534101,34.4634262 C80.6767957,33.8302099 80.0231629,33.5136066 79.192492,33.5136066 C78.5388494,33.5136066 77.9907511,33.7229733 77.5481806,34.1417131 C77.1056101,34.5604529 76.8843281,35.0796144 76.8843281,35.6992131 C76.8843281,36.3188118 77.1022057,36.8498885 77.5379675,37.292459 C77.9737292,37.7350295 78.5252319,37.9563115 79.192492,37.9563115 C79.989119,37.9563115 80.6427518,37.6397081 81.1534101,37.0064918 L81.7049183,37.3741639 C81.4325672,37.769073 81.0666009,38.0720591 80.6070084,38.2831311 C80.147416,38.4942032 79.6520849,38.5997377 79.1210002,38.5997377 C78.2835206,38.5997377 77.5839293,38.3239864 77.0222052,37.7724754 C76.460481,37.2209645 76.1796232,36.5469056 76.1796232,35.7502787 C76.1796232,34.9536518 76.4638854,34.2710821 77.0324183,33.7025492 C77.6009512,33.1340163 78.3311816,32.8497541 79.2231314,32.8497541 C79.7474072,32.8497541 80.2325253,32.9620972 80.6785002,33.1867869 C81.1244752,33.4114765 81.4666111,33.7212712 81.7049183,34.1161803 Z M88.0151642,36.6592459 L88.6075249,36.9656393 C88.02197,38.0550437 87.1572683,38.5997377 86.0133937,38.5997377 C85.1963404,38.5997377 84.5222816,38.3188799 83.991197,37.7571557 C83.4601124,37.1954316 83.194574,36.5196706 83.194574,35.7298525 C83.194574,34.9400343 83.4618145,34.2625711 83.9963035,33.6974426 C84.5307926,33.1323141 85.191234,32.8497541 85.9776478,32.8497541 C86.7640616,32.8497541 87.4245031,33.1118881 87.9589921,33.6361639 C88.4934811,34.1604398 88.7709346,34.8753507 88.7913609,35.780918 L83.9094921,35.780918 C83.9299184,36.4345606 84.1358808,36.9605308 84.5273855,37.3588443 C84.9188902,37.7571577 85.3937953,37.9563115 85.952115,37.9563115 C86.8712999,37.9563115 87.5589761,37.5239606 88.0151642,36.6592459 Z M88.0151642,35.1783443 C87.9198413,34.6608772 87.6815377,34.255761 87.3002462,33.9629836 C86.9189546,33.6702062 86.4797951,33.5238197 85.9827544,33.5238197 C84.9614378,33.5238197 84.2941876,34.0753224 83.9809839,35.1783443 L88.0151642,35.1783443 Z M0,25.897541 L89,25.897541 L89,26.6270492 L0,26.6270492 L0,25.897541 Z" id="ShowFx-World"></path>
                    </g>
                </g>
            </g>
        </g>
    </g>
</svg>