<?xml version="1.0" encoding="UTF-8"?>
<svg width="16px" height="16px" viewBox="0 0 16 16" version="1.1" xmlns="http://www.w3.org/2000/svg" xmlns:xlink="http://www.w3.org/1999/xlink">
    <!-- Generator: Sketch 47.1 (45422) - http://www.bohemiancoding.com/sketch -->
    <title>Starbucks</title>
    <desc>Created with Sketch.</desc>
    <defs></defs>
    <g id="Page-1" stroke="none" stroke-width="1" fill="none" fill-rule="evenodd">
        <g id="Desktop" transform="translate(-963.000000, -858.000000)">
            <g id="Activ" transform="translate(816.000000, 854.000000)">
                <g id="Group-2">
                    <g id="Quotes-list-Copy-3" transform="translate(143.000000, 3.000000)">
                        <g id="Quotes-list" transform="translate(0.000000, 1.000000)">
                            <g id="Elements/Quotes/apple" transform="translate(4.000000, 0.000000)">
                                <g id="Starbucks">
                                    <rect id="Rectangle-Copy" fill="#FFFFFF" x="0" y="0" width="16" height="16" rx="8"></rect>
                                    <path d="M12.9844817,6.65130426 L12.9844817,6.65130426 C14.132909,6.25320288 14.8891244,7.39396925 15.7781437,7.12853881 C14.9177753,6.21534118 14.2155405,5.17903768 14.3104825,3.98150091 C14.3134495,3.91157854 14.2501252,3.87070562 14.190255,3.91157854 C13.7533177,4.21526922 13.4467487,4.72075613 13.3518066,5.28651177 C12.741104,4.89434427 12.0292155,4.84085078 11.4404771,5.08095152 C12.0448473,5.50424975 12.5703057,6.03843184 12.9844817,6.65130426 M11.7031621,3.12175249 L11.7031621,3.12175249 C11.1178335,3.16306824 10.6053942,3.365263 10.1941851,3.7001287 C10.3713159,3.20389688 10.5927293,2.77085645 10.8745001,2.35092371 C10.1275397,2.42965833 9.50129388,2.70137691 9.0454036,3.16940066 L8.69105351,2.233796 L9.48229661,1.53536941 L8.42243472,1.46292293 L7.99816227,0.476836002 L7.57433265,1.46292293 L6.51447075,1.53536941 L7.30863651,2.233796 L6.95096522,3.16940066 C6.49547348,2.70137691 5.87215034,2.42965833 5.12563276,2.35092371 C5.40399375,2.77085645 5.62837413,3.20389688 5.80253795,3.7001287 C5.3913289,3.365263 4.88185655,3.16306824 4.29351674,3.12175249 C4.64777825,3.5737459 4.95775708,4.05394739 5.18891272,4.57205486 C5.21419814,4.63227931 5.27114568,4.65127659 5.33106016,4.61965875 C6.13492382,4.22160165 7.0395306,3.99708841 7.99816227,3.99708841 C8.95683822,3.99708841 9.86184354,4.22160165 10.6653087,4.61965875 C10.7255774,4.65127659 10.7825249,4.63227931 10.8078546,4.57205486 C11.0389217,4.05394739 11.3519118,3.5737459 11.7031621,3.12175249 M6.58403886,5.92125984 L6.58403886,5.92125984 C6.73924969,5.76330349 7.06827007,5.76963591 7.40982245,5.89601871 C7.4224873,5.72880727 7.1188409,5.54215574 6.81515022,5.54215574 C6.59670371,5.54215574 6.48581985,5.61801198 6.48581985,5.72544179 C6.48581985,5.79492133 6.51110527,5.85514579 6.58403886,5.92125984 M9.18157287,5.54215574 L9.18157287,5.54215574 C9.00444211,5.54215574 8.79569351,5.59609205 8.66284544,5.7443505 C8.65018059,5.78225648 8.65018059,5.84252522 8.66917786,5.8804312 C8.99177726,5.76963591 9.27651495,5.76666897 9.41565116,5.92125984 C9.48862904,5.85514579 9.51054897,5.79492133 9.51054897,5.72544179 C9.51054897,5.61801198 9.40298631,5.54215574 9.18157287,5.54215574 M7.99816227,4.35723953 L7.99816227,4.35723953 C7.25465591,4.35723953 6.63460969,4.7742939 6.47018806,5.31808533 C6.45747893,5.35895825 6.47652049,5.38760915 6.52372583,5.36524639 C6.6565739,5.30546476 6.80886207,5.27681386 6.97332798,5.27681386 C7.27697439,5.27681386 7.54267052,5.38760915 7.70084829,5.580106 C7.77037211,5.81090738 7.77674882,6.14245188 7.69788135,6.33539156 C7.57433265,6.30718348 7.53004996,6.20896448 7.40645697,6.20896448 C7.28627375,6.20896448 7.19133166,6.29447435 6.98599283,6.29447435 C6.77724423,6.29447435 6.75488147,6.19931085 6.61866792,6.19931085 C6.45747893,6.19931085 6.42882803,6.36404246 6.42882803,6.54723994 C6.42882803,7.37497198 7.18845329,8.51228429 7.99816227,8.51228429 C8.80835836,8.51228429 9.56749651,7.37497198 9.56749651,6.54723994 C9.56749651,6.36404246 9.52950196,6.20267634 9.36508033,6.18031358 C9.27988044,6.24058232 9.20389134,6.29447435 9.01369719,6.29447435 C8.80494859,6.29447435 8.74800105,6.20896448 8.62781783,6.20896448 C8.48230491,6.20896448 8.49496976,6.51858904 8.32080594,6.53758632 C8.20394393,6.25656837 8.19765579,5.89942848 8.29547625,5.580106 C8.45409684,5.38760915 8.71979298,5.27681386 9.02343938,5.27681386 C9.18794957,5.27681386 9.34311612,5.30546476 9.47596419,5.36524639 C9.52321382,5.38760915 9.53919987,5.35895825 9.5265793,5.31808533 C9.36508033,4.7742939 8.74171291,4.35723953 7.99816227,4.35723953 M4.55921288,5.08095152 L4.55921288,5.08095152 C3.97047452,4.84085078 3.25557478,4.89434427 2.64814912,5.28651177 C2.55320704,4.72075613 2.24628371,4.21526922 1.80660089,3.91157854 C1.74637643,3.87070562 1.68314075,3.91157854 1.68942889,3.98150091 C1.78118262,5.17903768 1.08200324,6.21534118 0.221413448,7.12853881 C1.10724437,7.39396925 1.86345986,6.25320288 3.01516405,6.65130426 C3.42641739,6.03843184 3.95152153,5.50424975 4.55921288,5.08095152 M15.9903021,8.43013991 L15.9903021,8.43013991 C15.9810027,8.62307958 15.9620055,8.81265378 15.9396427,8.99926103 C15.0350359,9.15084068 14.7090267,8.34170737 13.7819686,8.38297884 C13.835595,8.57884118 13.8831989,8.78103594 13.9148167,8.98659618 C14.6803758,8.9832307 14.9903547,9.70061027 15.8418222,9.59322475 C15.7970967,9.81136128 15.7435589,10.0291878 15.6803233,10.2410362 C15.0063407,10.3072388 14.7689412,9.63746316 13.9908058,9.65637186 C13.9970939,9.76716715 14.0000609,9.87751962 14.0000609,9.99128185 C14.0000609,10.0544732 14.0000609,10.1176204 13.9970939,10.1778891 C14.6613343,10.1715124 14.8764596,10.7844291 15.5094806,10.7558225 C15.4335801,10.9710364 15.3450147,11.1796078 15.2467514,11.3847695 C14.7912597,11.362761 14.6360046,10.7780967 13.9431133,10.8257448 C13.9211934,10.9740033 13.8958637,11.1227046 13.8642459,11.2679961 C14.4652505,11.2267689 14.5950874,11.7798597 15.0252937,11.8240095 C14.9143656,12.0232816 14.7975921,12.2191882 14.6710322,12.4053527 C14.4179566,12.2697148 14.1965432,11.8586386 13.7124448,11.8332646 C13.7596059,11.6817292 13.8038886,11.5237286 13.8418831,11.3690935 C13.4117211,11.3690935 12.921246,11.2014392 12.5100369,10.8257448 C12.642885,10.0671381 11.4657626,9.29626503 11.4657626,8.7402073 C11.4657626,8.13658996 11.7727744,7.80464691 11.7727744,6.98953545 C11.7727744,6.38928359 11.4784717,5.73172993 11.0356448,5.28651177 C10.9503563,5.19803496 10.861791,5.12855542 10.7601622,5.06492119 C11.1684929,5.56744115 11.4784717,6.16477035 11.4784717,6.85349902 C11.4784717,7.6184382 11.1242102,8.02282773 11.1242102,8.73050939 C11.1242102,9.43522411 12.1586981,10.0481408 12.1586981,10.7747312 C12.1586981,11.0624358 12.0672101,11.3438523 11.7635194,11.8935776 C12.2282662,12.3581916 12.8326806,12.6108243 13.2248481,12.6108243 C13.3518066,12.6108243 13.4180092,12.5697743 13.4657017,12.4717767 C13.5036962,12.386444 13.5416022,12.2979229 13.576187,12.2128115 C13.9970939,12.2284433 14.190255,12.6108243 14.4209679,12.7624926 C14.2944079,12.9331138 14.1581501,13.0974025 14.0190139,13.2585915 C13.8642459,13.0848263 13.6521318,12.7972988 13.3455185,12.7151101 C13.2915379,12.8225399 13.2345903,12.9268256 13.1713104,13.0310671 C13.4370065,13.1006352 13.6175027,13.3691654 13.7567275,13.542975 C13.6078491,13.7009756 13.4496271,13.8494997 13.2851611,13.9916915 C13.1839309,13.8336908 13.0257974,13.6314518 12.8453455,13.5239777 C12.7820212,13.6124988 12.7124974,13.7009756 12.642885,13.7863083 C12.7917634,13.8874057 12.9275341,14.0706918 13.0131769,14.22236 C12.8263039,14.3740282 12.6302202,14.5162199 12.4277597,14.6521235 C12.3265295,13.8400232 11.2190637,13.2838769 11.5163777,12.3421613 C11.4185129,12.5065386 11.3013409,12.7151101 11.3013409,12.9647316 C11.3013409,13.6472164 12.0292155,14.1876424 12.086163,14.8669388 C11.9372846,14.9554156 11.7824724,15.0407484 11.6239403,15.1197487 C11.5986106,14.3772166 10.8297746,13.561928 10.8297746,12.948967 C10.8297746,12.2663936 11.7256134,11.5805876 11.7256134,10.7747312 C11.7256134,9.97232885 10.6906384,9.41290564 10.6906384,8.70517969 C10.6906384,7.99758659 11.1304983,7.5897873 11.1304983,6.68624331 C11.1304983,6.02240151 10.8141428,5.34970317 10.3270332,4.9195854 C10.2414348,4.84377344 10.1562791,4.78399181 10.0550489,4.73001121 C10.513419,5.28017934 10.7792037,5.78225648 10.7792037,6.5409518 C10.7792037,7.39396925 10.2764624,7.86487137 10.2764624,8.69889155 C10.2764624,9.53295601 11.2886318,9.99756999 11.2886318,10.7747312 C11.2886318,11.5553022 10.3460305,12.2095346 10.3460305,13.0090143 C10.3460305,13.7357375 11.1781465,14.4625493 11.1908113,15.3251318 C11.0102708,15.4041321 10.8234864,15.4768 10.6336908,15.5431798 C10.7412092,14.6710765 9.804896,13.7704994 9.804896,13.0595408 C9.804896,12.2823354 10.7825249,11.6155709 10.7825249,10.7747312 C10.7825249,9.93778836 9.78890995,9.54894206 9.78890995,8.6862267 C9.78890995,7.82696539 10.3996125,7.34968656 10.3996125,6.40190416 C10.3996125,5.65928345 10.0326862,4.99247471 9.4979284,4.58175276 C9.48521927,4.57205486 9.47596419,4.56284406 9.46329934,4.55314615 C9.41272851,4.51856137 9.37136847,4.56284406 9.40936302,4.60703818 C9.78594301,5.07754176 9.98840347,5.55818607 9.98840347,6.26290079 C9.98840347,7.13487123 9.28913552,7.83963024 9.28913552,8.68334832 C9.28913552,9.67536914 10.2287699,9.95966401 10.2287699,10.7747312 C10.2287699,11.5932081 9.21952313,12.2444737 9.21952313,13.1101117 C9.21952313,13.9127354 10.1752321,14.8037917 10.0103234,15.7327983 C9.82052779,15.7801364 9.62439976,15.8244191 9.42831601,15.859181 C9.60881226,14.7057941 8.67210052,13.8747409 8.67210052,13.122688 C8.67210052,12.3042996 9.71633063,11.5742552 9.71633063,10.7747312 C9.71633063,10.0228554 8.96653612,9.77642224 8.86827284,9.00554917 C8.85560799,8.90108631 8.77036381,8.82235169 8.65314753,8.84130468 C8.50134647,8.86951275 8.30517416,8.97061013 7.99816227,8.97061013 C7.69150464,8.97061013 7.49838783,8.86951275 7.34322129,8.84130468 C7.22932621,8.82235169 7.1441706,8.90108631 7.12809598,9.00554917 C7.03027552,9.77642224 6.28034817,10.0228554 6.28034817,10.7747312 C6.28034817,11.5742552 7.32754522,12.3042996 7.32754522,13.122688 C7.32754522,13.8747409 6.38795511,14.7057941 6.56800852,15.859181 C6.37192477,15.8244191 6.17584103,15.7801364 5.98600113,15.7327983 C5.82157951,14.8037917 6.77724423,13.9127354 6.77724423,13.1101117 C6.77724423,12.2444737 5.76751034,11.5932081 5.76751034,10.7747312 C5.76751034,9.95966401 6.71059878,9.67536914 6.71059878,8.68334832 C6.71059878,7.83963024 6.00836389,7.13487123 6.00836389,6.26290079 C6.00836389,5.55818607 6.21082435,5.07754176 6.590327,4.60703818 C6.62495606,4.56284406 6.58403886,4.51856137 6.53346803,4.55314615 C6.52080318,4.56284406 6.51110527,4.57205486 6.4984847,4.58175276 C5.9640812,4.99247471 5.59675629,5.65928345 5.59675629,6.40190416 C5.59675629,7.34968656 6.20741458,7.82696539 6.20741458,8.6862267 C6.20741458,9.54894206 5.21419814,9.93778836 5.21419814,10.7747312 C5.21419814,11.6155709 6.19178279,12.2823354 6.19178279,13.0595408 C6.19178279,13.7704994 5.25515963,14.6710765 5.362678,15.5431798 C5.17288239,15.4768 4.98946349,15.4041321 4.80595602,15.3251318 C4.81862087,14.4625493 5.65073689,13.7357375 5.65073689,13.0090143 C5.65073689,12.2095346 4.70769273,11.5553022 4.70769273,10.7747312 C4.70769273,9.99756999 5.720305,9.53295601 5.720305,8.69889155 C5.720305,7.86487137 5.21716508,7.39396925 5.21716508,6.5409518 C5.21716508,5.78225648 5.48286122,5.28017934 5.94512821,4.73001121 C5.8405325,4.78399181 5.75825526,4.84377344 5.66968988,4.9195854 C5.1825803,5.34970317 4.86591478,6.02240151 4.86591478,6.68624331 C4.86591478,7.5897873 5.30573046,7.99758659 5.30573046,8.70517969 C5.30573046,9.41290564 4.27456375,9.97232885 4.27456375,10.7747312 C4.27456375,11.5805876 5.16991545,12.2663936 5.16991545,12.948967 C5.16991545,13.561928 4.39771391,14.3772166 4.37242849,15.1197487 C4.21425072,15.0407484 4.06244966,14.9554156 3.91060432,14.8669388 C3.96755186,14.1876424 4.69507217,13.6472164 4.69507217,12.9647316 C4.69507217,12.7151101 4.57825443,12.5065386 4.47994686,12.3421613 C4.78062632,13.2838769 3.6701936,13.8400232 3.56896337,14.6521235 C3.36946985,14.5162199 3.17329754,14.3740282 2.98354621,14.22236 C3.07211159,14.0706918 3.20500394,13.8874057 3.356805,13.7863083 C3.28400426,13.7009756 3.21758023,13.6124988 3.15115619,13.5239777 C2.97402543,13.6314518 2.8127036,13.8336908 2.7113848,13.9916915 C2.55006296,13.8494997 2.39184091,13.7009756 2.23999557,13.542975 C2.37922035,13.3691654 2.56268353,13.1006352 2.82527988,13.0310671 C2.76514399,12.9268256 2.70509666,12.8225399 2.65133748,12.7151101 C2.34441415,12.7972988 2.13557699,13.0848263 1.97739922,13.2585915 C1.83817445,13.0974025 1.70209374,12.9331138 1.57553381,12.7624926 C1.80970068,12.6108243 2.00272892,12.2284433 2.42350304,12.2128115 C2.45826495,12.2979229 2.49311543,12.386444 2.53420976,12.4717767 C2.57849245,12.5697743 2.64496077,12.6108243 2.77462048,12.6108243 C3.16386533,12.6108243 3.76801406,12.3581916 4.233248,11.8935776 C3.93256853,11.3438523 3.84103621,11.0624358 3.84103621,10.7747312 C3.84103621,10.0481408 4.87556841,9.43522411 4.87556841,8.73050939 C4.87556841,8.02282773 4.51794141,7.6184382 4.51794141,6.85349902 C4.51794141,6.16477035 4.83128572,5.56744115 5.23611807,5.06492119 C5.13488784,5.12855542 5.04632246,5.19803496 4.9607683,5.28651177 C4.52130689,5.73172993 4.22691557,6.38928359 4.22691557,6.98953545 C4.22691557,7.80464691 4.53056198,8.13658996 4.53056198,8.7402073 C4.53056198,9.29626503 3.35370522,10.0671381 3.4867747,10.8257448 C3.07529995,11.2014392 2.58482488,11.3690935 2.15452998,11.3690935 C2.19252453,11.5237286 2.23680722,11.6817292 2.28427826,11.8332646 C1.80336825,11.8586386 1.58191052,12.2697148 1.32560231,12.4053527 C1.19908667,12.2191882 1.08200324,12.0232816 0.971296514,11.8240095 C1.40154713,11.7798597 1.53125112,11.2267689 2.13238864,11.2679961 C2.1007708,11.1227046 2.0754411,10.9740033 2.05329975,10.8257448 C1.36359686,10.7780967 1.20537481,11.362761 0.749750218,11.3847695 C0.654896697,11.1796078 0.566242752,10.9710364 0.487153869,10.7558225 C1.11990922,10.7844291 1.33512309,10.1715124 1.99954057,10.1778891 C1.99635221,10.1176204 1.99635221,10.0544732 1.99635221,9.99128185 C1.99635221,9.87751962 1.99954057,9.76716715 2.00587299,9.65637186 C1.22751616,9.63746316 0.990249505,10.3072388 0.316311252,10.2410362 C0.256175359,10.0291878 0.202460457,9.81136128 0.154989414,9.59322475 C1.00610271,9.70061027 1.31612582,8.9832307 2.08172924,8.98659618 C2.11657972,8.78103594 2.16090669,8.57884118 2.21785423,8.38297884 C1.28765205,8.34170737 0.964919807,9.15084068 0.0600473271,8.99926103 C0.0347176287,8.81265378 0.0189087085,8.62307958 0.00947649558,8.43013991 C1.05986189,8.5506331 1.45530631,7.68459654 2.41398226,7.79202635 C2.50578027,7.56162351 2.61015457,7.34003294 2.72723801,7.12853881 C1.52496298,6.91664614 1.11680943,7.92173035 0,7.76674093 C0.12018322,3.45666247 3.65420755,0 7.99816227,0 C12.3421613,0 15.876407,3.45666247 16,7.76674093 C14.8798251,7.92173035 14.4715387,6.91664614 13.2691308,7.12853881 C13.3864357,7.34003294 13.4939097,7.56162351 13.5824751,7.79202635 C14.5411511,7.68459654 14.9367283,8.5506331 15.9903021,8.43013991 M7.99816227,6.92005591 L7.99816227,6.92005591 C7.90034181,6.92005591 7.88130025,6.88507258 7.8146548,6.88507258 C7.7514634,6.88507258 7.62826896,6.93559913 7.59961806,6.97983754 C7.60293926,7.00512295 7.61228291,7.02407594 7.62826896,7.04302894 C7.77037211,7.06534741 7.83369636,7.14412632 7.99816227,7.14412632 C8.16262818,7.14412632 8.22586386,7.06534741 8.3684984,7.04302894 C8.38745139,7.02407594 8.39373953,7.00512295 8.3971493,6.97983754 C8.3718196,6.93559913 8.24822662,6.88507258 8.18499094,6.88507258 C8.11834549,6.88507258 8.09642556,6.92005591 7.99816227,6.92005591 M7.41912182,7.41292224 L7.41912182,7.41292224 C7.41912182,7.41292224 7.37483913,7.42890829 7.36553976,7.46681428 C7.53341544,7.59611973 7.64722195,7.89011251 7.99816227,7.89011251 C8.34945685,7.89011251 8.46671741,7.59611973 8.63419454,7.46681428 C8.62152969,7.42890829 8.58061248,7.41292224 8.58061248,7.41292224 C8.58061248,7.41292224 8.35915475,7.46681428 7.99816227,7.46681428 C7.63752404,7.46681428 7.41912182,7.41292224 7.41912182,7.41292224 M8.80494859,3.45666247 L8.80494859,3.45666247 C8.73241354,3.44399762 8.39373953,3.38713865 7.99816227,3.38713865 C7.60293926,3.38713865 7.26435382,3.44399762 7.19474143,3.45666247 C7.15342568,3.46295061 7.13779389,3.42504463 7.16941173,3.4031247 C7.19770837,3.38080622 7.99816227,2.77085645 7.99816227,2.77085645 C7.99816227,2.77085645 8.80202593,3.38080622 8.82731135,3.4031247 C8.85892919,3.42504463 8.84294314,3.46295061 8.80494859,3.45666247" id="Fill-3" fill="#05704B"></path>
                                </g>
                            </g>
                        </g>
                    </g>
                </g>
            </g>
        </g>
    </g>
</svg>