<?xml version="1.0" encoding="UTF-8"?>
<svg width="16px" height="16px" viewBox="0 0 16 16" version="1.1" xmlns="http://www.w3.org/2000/svg" xmlns:xlink="http://www.w3.org/1999/xlink">
    <!-- Generator: Sketch 47.1 (45422) - http://www.bohemiancoding.com/sketch -->
    <title>visa</title>
    <desc>Created with Sketch.</desc>
    <defs></defs>
    <g id="Page-1" stroke="none" stroke-width="1" fill="none" fill-rule="evenodd">
        <g id="Desktop" transform="translate(-1106.000000, -858.000000)">
            <g id="Activ" transform="translate(816.000000, 854.000000)">
                <g id="Group-2">
                    <g id="Quotes-list-Copy-2" transform="translate(286.000000, 3.000000)">
                        <g id="Quotes-list" transform="translate(0.000000, 1.000000)">
                            <g id="Elements/Quotes/apple" transform="translate(4.000000, 0.000000)">
                                <g id="visa">
                                    <rect id="Rectangle" fill="#373E78" x="0" y="0" width="16" height="16" rx="8"></rect>
                                    <path d="M6.51965934,6.06614136 L4.95982569,9.78659265 L3.94565823,9.78659265 L3.17952085,6.82125517 C3.13542662,6.63936644 3.09133238,6.57322509 2.95353789,6.49606017 C2.71653136,6.36928924 2.33621856,6.24803009 2,6.17637695 L2.02204712,6.06614136 L3.65904569,6.06614136 C3.86849331,6.06614136 4.05589382,6.20393585 4.09998806,6.44645415 L4.50785976,8.59604823 L5.51100366,6.06614136 L6.51965934,6.06614136 L6.51965934,6.06614136 Z M10.5046761,8.57400111 C10.5101878,7.59290433 9.14877826,7.53778653 9.15429004,7.10235594 C9.15980181,6.97007323 9.28657275,6.82676695 9.56216173,6.7881845 C9.69995622,6.77164916 10.080269,6.75511382 10.5101878,6.95353789 L10.681053,6.16535339 C10.4495583,6.0826767 10.1519222,6 9.78263292,6 C8.83460681,6 8.16216969,6.50708373 8.15665791,7.22912687 C8.15114613,7.7637695 8.63618274,8.0614056 8.9999602,8.24329433 C9.37476122,8.42518306 9.50153216,8.54093044 9.50153216,8.70628383 C9.49602038,8.95431391 9.20389605,9.06454951 8.92830707,9.07006129 C8.44327046,9.07557307 8.16216969,8.93777857 7.9416985,8.83305476 L7.76532155,9.64879815 C7.99130452,9.75352197 8.404688,9.84171044 8.83460681,9.84722222 C9.8432625,9.84722222 10.4991643,9.34565027 10.5046761,8.57400111 L10.5046761,8.57400111 Z M13.0180476,9.78659265 L13.9054441,9.78659265 L13.1282832,6.06614136 L12.307028,6.06614136 C12.1196275,6.06614136 11.9652977,6.17086517 11.8991563,6.33621856 L10.45507,9.78108087 L11.4637257,9.78108087 L11.6621498,9.22439112 L12.8967884,9.22439112 L13.0180476,9.78659265 L13.0180476,9.78659265 Z M11.9432506,8.4692773 L12.4503343,7.07479704 L12.7424586,8.4692773 L11.9432506,8.4692773 L11.9432506,8.4692773 Z M7.89209249,6.06614136 L7.09839621,9.78659265 L6.13934655,9.78659265 L6.93304282,6.06614136 L7.89209249,6.06614136 L7.89209249,6.06614136 Z" id="Shape" fill="#FFFFFF"></path>
                                </g>
                            </g>
                        </g>
                    </g>
                </g>
            </g>
        </g>
    </g>
</svg>